<?xml version="1.0" encoding="utf-8"?>
<!-- Generator: Adobe Illustrator 18.0.0, SVG Export Plug-In . SVG Version: 6.00 Build 0)  -->
<!DOCTYPE svg PUBLIC "-//W3C//DTD SVG 1.1//EN" "http://www.w3.org/Graphics/SVG/1.1/DTD/svg11.dtd">
<svg version="1.1" id="Layer_1" xmlns="http://www.w3.org/2000/svg" xmlns:xlink="http://www.w3.org/1999/xlink" x="0px" y="0px"
	 viewBox="0 0 72 72" enable-background="new 0 0 72 72" xml:space="preserve">
<rect x="17.8" y="30.8" fill="#603813" width="16.2" height="1.6"/>
<g>
	<g>
		<defs>
			<rect id="SVGID_1_" x="4.6" y="5.6" width="62.8" height="60.6"/>
		</defs>
		<clipPath id="SVGID_2_">
			<use xlink:href="#SVGID_1_"  overflow="visible"/>
		</clipPath>
		<g clip-path="url(#SVGID_2_)">
			<g>
				<defs>
					<rect id="SVGID_3_" x="-25.1" y="-3.8" width="102.1" height="98.6"/>
				</defs>
				<clipPath id="SVGID_4_">
					<use xlink:href="#SVGID_3_"  overflow="visible"/>
				</clipPath>
				<g clip-path="url(#SVGID_4_)">
					<line fill="none" stroke="#231F20" stroke-width="2.88" x1="-20" y1="94.4" x2="-20" y2="193.7"/>
					<line fill="none" stroke="#231F20" stroke-width="2.88" x1="0.4" y1="94.4" x2="0.4" y2="193.7"/>
					<line fill="none" stroke="#231F20" stroke-width="2.88" x1="20.8" y1="94.4" x2="20.8" y2="193.7"/>
					<line fill="none" stroke="#231F20" stroke-width="2.88" x1="41.3" y1="94.4" x2="41.3" y2="193.7"/>
					<line fill="none" stroke="#231F20" stroke-width="2.88" x1="61.7" y1="94.4" x2="61.7" y2="193.7"/>
					<line fill="none" stroke="#231F20" stroke-width="2.88" x1="-9.8" y1="94.4" x2="-9.8" y2="193.7"/>
					<line fill="none" stroke="#231F20" stroke-width="2.88" x1="10.6" y1="94.4" x2="10.6" y2="193.7"/>
					<line fill="none" stroke="#231F20" stroke-width="2.88" x1="31" y1="94.4" x2="31" y2="193.7"/>
					<line fill="none" stroke="#231F20" stroke-width="2.88" x1="51.5" y1="94.4" x2="51.5" y2="193.7"/>
					<line fill="none" stroke="#231F20" stroke-width="2.88" x1="71.9" y1="94.4" x2="71.9" y2="193.7"/>
				</g>
				<g clip-path="url(#SVGID_4_)">
					<line fill="none" stroke="#231F20" stroke-width="2.88" x1="-20" y1="-4.2" x2="-20" y2="95.1"/>
					<line fill="none" stroke="#231F20" stroke-width="2.88" x1="0.4" y1="-4.2" x2="0.4" y2="95.1"/>
					<line fill="none" stroke="#231F20" stroke-width="2.88" x1="20.8" y1="-4.2" x2="20.8" y2="95.1"/>
					<line fill="none" stroke="#231F20" stroke-width="2.88" x1="41.3" y1="-4.2" x2="41.3" y2="95.1"/>
					<line fill="none" stroke="#231F20" stroke-width="2.88" x1="61.7" y1="-4.2" x2="61.7" y2="95.1"/>
					<line fill="none" stroke="#231F20" stroke-width="2.88" x1="-9.8" y1="-4.2" x2="-9.8" y2="95.1"/>
					<line fill="none" stroke="#231F20" stroke-width="2.88" x1="10.6" y1="-4.2" x2="10.6" y2="95.1"/>
					<line fill="none" stroke="#231F20" stroke-width="2.88" x1="31" y1="-4.2" x2="31" y2="95.1"/>
					<line fill="none" stroke="#231F20" stroke-width="2.88" x1="51.5" y1="-4.2" x2="51.5" y2="95.1"/>
					<line fill="none" stroke="#231F20" stroke-width="2.88" x1="71.9" y1="-4.2" x2="71.9" y2="95.1"/>
				</g>
				<g clip-path="url(#SVGID_4_)">
					<line fill="none" stroke="#231F20" stroke-width="2.88" x1="-20" y1="-102.7" x2="-20" y2="-3.5"/>
					<line fill="none" stroke="#231F20" stroke-width="2.88" x1="0.4" y1="-102.7" x2="0.4" y2="-3.5"/>
					<line fill="none" stroke="#231F20" stroke-width="2.88" x1="20.8" y1="-102.7" x2="20.8" y2="-3.5"/>
					<line fill="none" stroke="#231F20" stroke-width="2.88" x1="41.3" y1="-102.7" x2="41.3" y2="-3.5"/>
					<line fill="none" stroke="#231F20" stroke-width="2.88" x1="61.7" y1="-102.7" x2="61.7" y2="-3.5"/>
					<line fill="none" stroke="#231F20" stroke-width="2.88" x1="-9.8" y1="-102.7" x2="-9.8" y2="-3.5"/>
					<line fill="none" stroke="#231F20" stroke-width="2.88" x1="10.6" y1="-102.7" x2="10.6" y2="-3.5"/>
					<line fill="none" stroke="#231F20" stroke-width="2.88" x1="31" y1="-102.7" x2="31" y2="-3.5"/>
					<line fill="none" stroke="#231F20" stroke-width="2.88" x1="51.5" y1="-102.7" x2="51.5" y2="-3.5"/>
					<line fill="none" stroke="#231F20" stroke-width="2.88" x1="71.9" y1="-102.7" x2="71.9" y2="-3.5"/>
				</g>
			</g>
		</g>
	</g>
</g>
<rect x="6.8" y="66.3" width="58.3" height="3.1"/>
<rect x="6.8" y="2.5" width="58.3" height="3.1"/>
<g>
	<rect x="43" y="47" fill="none" width="17" height="9"/>
	<rect x="43" y="38" fill="none" width="17" height="6"/>
	<path d="M60.3,36H42.7H40v2.2v6.3v2.2v9.6v1.9V58h23v0.1v-1.9v-9.6v-2.2v-6.3V36H60.3z M60,56H43v-9h17V56z M60,44H43v-6h17V44z"/>
</g>
</svg>
