<?xml version="1.0" encoding="utf-8"?>
<!-- Generator: Adobe Illustrator 18.0.0, SVG Export Plug-In . SVG Version: 6.00 Build 0)  -->
<!DOCTYPE svg PUBLIC "-//W3C//DTD SVG 1.1//EN" "http://www.w3.org/Graphics/SVG/1.1/DTD/svg11.dtd">
<svg version="1.1" id="Layer_1" xmlns="http://www.w3.org/2000/svg" xmlns:xlink="http://www.w3.org/1999/xlink" x="0px" y="0px"
	 viewBox="0 0 72 72" enable-background="new 0 0 72 72" xml:space="preserve">
<path fill="#F7CF00" d="M-80.1,13.6c0,0,1-66.8-7.7-93.4c0,0,4.8-5.8,0-13.5h-8.5h-7h-8.5c-4.8,7.7,0,13.5,0,13.5
	c-8.7,26.6-7.7,93.4-7.7,93.4c-15,18.9-15,35.8-15,35.8l3.4,129.6v3.9c3.3,11.2,29.4,7.6,31.3,7.3c2,0.3,28.1,3.9,31.3-7.3V179
	l3.4-129.6C-65.1,49.4-65.1,32.5-80.1,13.6z"/>
<g>
	<path fill="#38F7F3" d="M31.1,27.8c0-0.6-0.1-1.2-0.1-1.8C31,26.6,31,27.2,31.1,27.8z"/>
	<path fill="#38F7F3" d="M40.4,22.4c0,0,0.2,1.3,0.2,2.8c-0.1-5.7-1.9-13.4-1.9-13.4c1.2-0.6,0-2.8,0-2.8h0c-1.3,0.3-4.4,1-5.7,0
		h-0.2c0,0-1,2.3,0,2.8c0,0-1.3,5.9-1.6,11.3c0-0.3,0.1-0.5,0.2-0.7C31.3,22.4,38.1,23.3,40.4,22.4z"/>
	<path fill="#38F7F3" d="M31.3,30.1c0,0,0-0.3-0.1-0.9c-0.2,0.4-0.6,1.5-0.9,2c0,0-1.9,2.1-1.9,5.9C28.6,36.1,29.4,31.6,31.3,30.1z"
		/>
	<path fill="#F7CF00" d="M43.5,60.6c0-0.1,0-0.1,0-0.1l0-1c0-0.1,0-0.1,0-0.1V38.7c0.1-0.6,0.1-1.1,0.1-1.6
		c-0.3-2.9-3.2-6.9-3.2-6.9c0.1-0.1,0.2-0.3,0.2-0.5c-0.1-0.3-0.2-0.6-0.2-0.6c0.3-1,0.4-2.4,0.4-3.8c-0.1-1.5-0.2-2.8-0.2-2.8
		c-2.3,0.9-9.1,0-9.1,0c-0.1,0.2-0.1,0.5-0.2,0.7C31,23.9,31,24.9,31,26c0,0.6,0.1,1.2,0.1,1.8c0,0.6,0.1,1.1,0.1,1.5
		c0.1,0.6,0.1,0.9,0.1,0.9c-2,1.4-2.7,6-2.9,7c0,0.1,0,0.2,0,0.2l0.1,22.7c-0.8,6.1,7.8,4.4,7.8,4.4C44.3,64.8,43.7,61.3,43.5,60.6z
		 M29.7,36.7c0,0,1.8,1.2,12.1,0.4c0,0,1.2,14.9,0,20.9c0,0-9.4,1.4-12.1,0C30.2,58.2,28.3,40.3,29.7,36.7z"/>
	<path fill="#F1AF00" d="M38.7,9c0.4-0.1,0.6-0.2,0.6-0.2l-0.3-1.3c-3.5-0.6-5.6,0-5.6,0c-0.4,0.3-0.5,1.3-0.5,1.3
		c0.1,0.1,0.1,0.1,0.2,0.2C34.2,10,37.4,9.3,38.7,9z"/>
	<path fill="#FFFFFF" d="M29.7,58c2.8,1.4,12.1,0,12.1,0c1.2-6,0-20.9,0-20.9c-10.3,0.8-12.1-0.4-12.1-0.4
		C28.3,40.3,30.2,58.2,29.7,58z"/>
</g>
<g>
	<path fill="#38F7F3" d="M48.5,27.8c0-0.6-0.1-1.2-0.1-1.8C48.4,26.6,48.4,27.2,48.5,27.8z"/>
	<path fill="#38F7F3" d="M57.8,22.4c0,0,0.2,1.3,0.2,2.8c-0.1-5.7-1.9-13.4-1.9-13.4c1.2-0.6,0-2.8,0-2.8h0c-1.3,0.3-4.4,1-5.7,0
		h-0.2c0,0-1,2.3,0,2.8c0,0-1.3,5.9-1.6,11.3c0-0.3,0.1-0.5,0.2-0.7C48.6,22.4,55.5,23.3,57.8,22.4z"/>
	<path fill="#38F7F3" d="M48.7,30.1c0,0,0-0.3-0.1-0.9c-0.2,0.4-0.6,1.5-0.9,2c0,0-1.9,2.1-1.9,5.9C46,36.1,46.7,31.6,48.7,30.1z"/>
	<path fill="#F7CF00" d="M60.9,60.6c0-0.1,0-0.1,0-0.1l0-1c0-0.1,0-0.1,0-0.1V38.7c0.1-0.6,0.1-1.1,0.1-1.6
		c-0.3-2.9-3.2-6.9-3.2-6.9c0.1-0.1,0.2-0.3,0.2-0.5c-0.1-0.3-0.2-0.6-0.2-0.6c0.3-1,0.4-2.4,0.4-3.8c-0.1-1.5-0.2-2.8-0.2-2.8
		c-2.3,0.9-9.1,0-9.1,0c-0.1,0.2-0.1,0.5-0.2,0.7c-0.1,0.8-0.1,1.8-0.1,2.9c0,0.6,0.1,1.2,0.1,1.8c0,0.6,0.1,1.1,0.1,1.5
		c0.1,0.6,0.1,0.9,0.1,0.9c-2,1.4-2.7,6-2.9,7c0,0.1,0,0.2,0,0.2l0.1,22.7c-0.8,6.1,7.8,4.4,7.8,4.4C61.6,64.8,61.1,61.3,60.9,60.6z
		 M47.1,36.7c0,0,1.8,1.2,12.1,0.4c0,0,1.2,14.9,0,20.9c0,0-9.4,1.4-12.1,0C47.6,58.2,45.7,40.3,47.1,36.7z"/>
	<path fill="#F1AF00" d="M56,9c0.4-0.1,0.6-0.2,0.6-0.2l-0.3-1.3c-3.5-0.6-5.6,0-5.6,0c-0.4,0.3-0.5,1.3-0.5,1.3
		c0.1,0.1,0.1,0.1,0.2,0.2C51.6,10,54.8,9.3,56,9z"/>
	<path fill="#FFFFFF" d="M47.1,58c2.8,1.4,12.1,0,12.1,0c1.2-6,0-20.9,0-20.9c-10.3,0.8-12.1-0.4-12.1-0.4
		C45.7,40.3,47.6,58.2,47.1,58z"/>
</g>
<g>
	<path fill="#38F7F3" d="M13.7,27.8c0-0.6-0.1-1.2-0.1-1.8C13.6,26.6,13.7,27.2,13.7,27.8z"/>
	<path fill="#38F7F3" d="M23,22.4c0,0,0.2,1.3,0.2,2.8c-0.1-5.7-1.9-13.4-1.9-13.4c1.2-0.6,0-2.8,0-2.8h0c-1.3,0.3-4.4,1-5.7,0h-0.2
		c0,0-1,2.3,0,2.8c0,0-1.3,5.9-1.6,11.3c0-0.3,0.1-0.5,0.2-0.7C13.9,22.4,20.8,23.3,23,22.4z"/>
	<path fill="#38F7F3" d="M14,30.1c0,0,0-0.3-0.1-0.9c-0.2,0.4-0.6,1.5-0.9,2c0,0-1.9,2.1-1.9,5.9C11.2,36.1,12,31.6,14,30.1z"/>
	<path fill="#F7CF00" d="M26.1,60.6c0-0.1,0-0.1,0-0.1l0-1c0-0.1,0-0.1,0-0.1V38.7c0.1-0.6,0.1-1.1,0.1-1.6
		c-0.3-2.9-3.2-6.9-3.2-6.9c0.1-0.1,0.2-0.3,0.2-0.5C23,29.3,22.9,29,22.9,29c0.3-1,0.4-2.4,0.4-3.8c-0.1-1.5-0.2-2.8-0.2-2.8
		c-2.3,0.9-9.1,0-9.1,0c-0.1,0.2-0.1,0.5-0.2,0.7c-0.1,0.8-0.1,1.8-0.1,2.9c0,0.6,0.1,1.2,0.1,1.8c0,0.6,0.1,1.1,0.1,1.5
		c0.1,0.6,0.1,0.9,0.1,0.9c-2,1.4-2.7,6-2.9,7c0,0.1,0,0.2,0,0.2l0.1,22.7c-0.8,6.1,7.8,4.4,7.8,4.4C26.9,64.8,26.3,61.3,26.1,60.6z
		 M12.4,36.7c0,0,1.8,1.2,12.1,0.4c0,0,1.2,14.9,0,20.9c0,0-9.4,1.4-12.1,0C12.8,58.2,10.9,40.3,12.4,36.7z"/>
	<path fill="#F1AF00" d="M21.3,9c0.4-0.1,0.6-0.2,0.6-0.2l-0.3-1.3c-3.5-0.6-5.6,0-5.6,0c-0.4,0.3-0.5,1.3-0.5,1.3
		c0.1,0.1,0.1,0.1,0.2,0.2C16.9,10,20,9.3,21.3,9z"/>
	<path fill="#FFFFFF" d="M12.4,58c2.8,1.4,12.1,0,12.1,0c1.2-6,0-20.9,0-20.9c-10.3,0.8-12.1-0.4-12.1-0.4
		C10.9,40.3,12.8,58.2,12.4,58z"/>
</g>
</svg>
