<?xml version="1.0" encoding="utf-8"?>
<!-- Generator: Adobe Illustrator 18.0.0, SVG Export Plug-In . SVG Version: 6.00 Build 0)  -->
<!DOCTYPE svg PUBLIC "-//W3C//DTD SVG 1.1//EN" "http://www.w3.org/Graphics/SVG/1.1/DTD/svg11.dtd">
<svg version="1.1" id="Layer_1" xmlns="http://www.w3.org/2000/svg" xmlns:xlink="http://www.w3.org/1999/xlink" x="0px" y="0px"
	 viewBox="0 0 400 400" enable-background="new 0 0 400 400" xml:space="preserve">
<rect x="40.1" y="40.6" fill="#90CBE7" width="320" height="319.4"/>
<path fill="#3D614A" d="M89.5,247c0,0,17-28.5,35.5-27.5c0,0,15.5-6.5,16-11.5c0.5,2,13.5-21,14-29c-1,0.5,21-72.5,21-72.5
	s8-14,11-13.5c1,0.5,7.5-7.5,9.5,1c0,0.5,5,1.5,5,4.5s2,7-9.5,3c0.5,1-7.5,3-11.5,25c-0.5,0-21.5,83-19.5,90.5c0-0.5-1,17.5-1.5,20
	S89,248.5,89,248.5"/>
<path fill="#BAD896" d="M92,244.5c0,0,17.5-26,34.5-26.5c1-0.5,21-11,24-23s23.5-88.5,23.5-88.5S184,91,187,92
	c-0.5-2,9.5-8.5,10.5,1c0,1.5,5,4,5,4l-1,2.5l-7-2.5c0,0-2-7.5-4-5.2s-9.8,12.8-9.8,12.8l-27.2,99c0,0-2.5,37.8-5.5,40.8
	S92,244.5,92,244.5z"/>
<circle cx="191.3" cy="94" r="2.3"/>
<path fill="#AC9C71" d="M152.3,246c0,0,5.3-32.7,4.7-37.7c0,2,13.3-56,13.3-56l10.7-42c0,0,2-12.3,12.3-9.7c0.3,0-4.3,0-6,3.7
	c-1.7,3.7-25.3,103-25.3,103s-1.3,36.7-2.3,38.3C158.7,247.3,152.3,246,152.3,246z"/>
<polygon fill="#70724E" points="40.1,358.9 360,358.9 359.6,230.9 39.6,247.4 "/>
<path fill="#E9FBF8" d="M39.6,94.9c0,0,24.6-6.9,22.3-18.3c0,0,23.4,8,34.9-2.9c1.1-0.6,21.1,13.1,31.4,9.7
	c10.3-3.4,27.4-7.4,26.3-14.9c0,0,20,14.3,25.7-1.1c0,0.6,13.7-12,9.7-16.6s0-10.9,0-10.9L40,40l-1,53.1"/>
<path fill="#E9FBF8" d="M203,40h157l0.7,41.1c0,0-89.7,9.7-100.6-6.3c2.9,2.3-50.3,10.3-52.6-5.7C208.1,72,186.4,58.9,203,40z"/>
<path fill="#E9FBF8" d="M358.4,130.9c0,0-38.9,4-39.4-7.4c0,0-39.4,4-39.4-8c0,0.6-2.3-18.9,25.1-12c-0.6,1.1-2.3-9.1,6.3-7.4
	c-0.6,1.7,6.3-16,18.3-10.3c1.1,1.7,19.4-13.1,29.7,1.1C359.6,87.4,357.9,131.4,358.4,130.9z"/>
</svg>
