<?xml version="1.0" encoding="utf-8"?>
<!-- Generator: Adobe Illustrator 18.0.0, SVG Export Plug-In . SVG Version: 6.00 Build 0)  -->
<!DOCTYPE svg PUBLIC "-//W3C//DTD SVG 1.1//EN" "http://www.w3.org/Graphics/SVG/1.1/DTD/svg11.dtd">
<svg version="1.1" id="Layer_1" xmlns="http://www.w3.org/2000/svg" xmlns:xlink="http://www.w3.org/1999/xlink" x="0px" y="0px"
	 viewBox="0 0 72 72" enable-background="new 0 0 72 72" xml:space="preserve">
<g>
	<rect x="12.8" y="8.2" fill="#AADFF1" width="47.2" height="55.7"/>
	<polygon fill="#574109" points="59.9,64 59.9,52.7 13,49.7 13,64 	"/>
	<path fill="#B07E09" d="M27.9,51L33.4,64L30.4,8h-5.4C25.1,8,27.8,50.9,27.9,51z"/>
	<polygon fill="#FEC77C" points="33.4,64 30.4,8 32.5,8 35.2,64 	"/>
	<polyline fill="#FEC77C" points="59.9,29 58.3,29 59.1,8 51.4,8 51.2,52.1 59.9,52.7 60.2,29 	"/>
	<polygon fill="#FEC77C" points="13,8 14.3,8.1 16,29.3 20.1,29.3 18.8,8 24.2,8.1 27.2,50.7 13,49.7 	"/>
	<rect x="52.5" y="8" fill="#CC920A" width="1.3" height="44.3"/>
	<rect x="54.7" y="8" fill="#CC920A" width="1.3" height="44.3"/>
	<line fill="none" stroke="#CC920A" stroke-miterlimit="10" x1="23.9" y1="50.3" x2="20.3" y2="8"/>
	<line fill="none" stroke="#CC920A" stroke-miterlimit="10" x1="15.9" y1="49.8" x2="12.3" y2="8"/>
	<line fill="none" stroke="#CC920A" stroke-miterlimit="10" x1="22" y1="50.4" x2="19.8" y2="29.4"/>
	<line fill="none" stroke="#CC920A" stroke-miterlimit="10" x1="20" y1="50" x2="17.8" y2="29.4"/>
	<line fill="none" stroke="#CC920A" stroke-miterlimit="10" x1="18" y1="49.8" x2="15.8" y2="29.4"/>
	<line fill="none" stroke="#CC920A" stroke-miterlimit="10" x1="25.9" y1="50.3" x2="22.3" y2="8"/>
	<rect x="56.7" y="8" fill="#CC920A" width="1.3" height="44.3"/>
	
		<ellipse transform="matrix(0.997 -7.695922e-02 7.695922e-02 0.997 -2.1332 2.3957)" fill="#CC920A" cx="30" cy="28.9" rx="1" ry="5.6"/>
	<g>
		<circle fill="#5A3B00" cx="28" cy="28.2" r="1.2"/>
		<rect x="29.1" y="27.8" fill="#5A3B00" width="1.2" height="1.2"/>
	</g>
</g>
</svg>
