<?xml version="1.0" encoding="utf-8"?>
<!-- Generator: Adobe Illustrator 18.0.0, SVG Export Plug-In . SVG Version: 6.00 Build 0)  -->
<!DOCTYPE svg PUBLIC "-//W3C//DTD SVG 1.1//EN" "http://www.w3.org/Graphics/SVG/1.1/DTD/svg11.dtd">
<svg version="1.1" id="Layer_1" xmlns="http://www.w3.org/2000/svg" xmlns:xlink="http://www.w3.org/1999/xlink" x="0px" y="0px"
	 viewBox="0 0 72 72" enable-background="new 0 0 72 72" xml:space="preserve">
<g>
	<polygon fill="#000066" points="58.9,31 55,27.2 55,34.2 59,31.3 59,46.5 59,61.8 47.7,53.9 36.5,46 36.4,46 24.7,53.9 13,61.8 
		13,46.5 13,31.3 17,34.1 17,27.3 13.1,31 13,31 13,62 59,62 59,31 	"/>
	<polygon fill="#000066" points="47.5,20.3 36,9.7 24.5,20.3 23.6,21 48.4,21 	"/>
	<polygon fill="#CCFFFF" points="36.4,46.5 36.5,46.5 36.4,46.5 	"/>
	<polygon fill="#CCFFFF" points="17,34.1 24.6,38.9 36.4,46.5 47.8,38.9 55,34.2 55,27.2 55,21 48.4,21 23.6,21 17,21 17,27.3 	"/>
	<polygon fill="#0000FF" points="24.7,38.9 17.3,34.1 13,31.3 13,46.5 13,61.8 24.7,54.1 36.4,46.5 36.4,46.5 	"/>
	<polygon fill="#0000FF" points="36.4,46.5 36.5,46.5 47.7,54.1 59,61.8 59,46.5 59,31.3 54.7,34.2 47.7,38.9 	"/>
</g>
</svg>
