<?xml version="1.0" encoding="utf-8"?>
<!-- Generator: Adobe Illustrator 18.0.0, SVG Export Plug-In . SVG Version: 6.00 Build 0)  -->
<!DOCTYPE svg PUBLIC "-//W3C//DTD SVG 1.1//EN" "http://www.w3.org/Graphics/SVG/1.1/DTD/svg11.dtd">
<svg version="1.1" xmlns="http://www.w3.org/2000/svg" xmlns:xlink="http://www.w3.org/1999/xlink" x="0px" y="0px"
	 viewBox="0 0 72 72" enable-background="new 0 0 72 72" xml:space="preserve">
<g id="Layer_1" display="none">
	
		<image display="inline" overflow="visible" width="450" height="239" xlink:href="../fish.jpg"  transform="matrix(0.24 0 0 0.24 -18 8)">
	</image>
</g>
<g id="Dark_Orange">
</g>
<g id="Eye">
</g>
<g id="light_orange">
	<g>
		<path fill="#F15A24" d="M12.5,31.2l9.1-0.6l-2.5-3.5l5.1,3c0,0,10.3,2.6,11.9,5.5c0,0,0.7,0.7,0.5,1.3c-0.2,0.7-2.7,3.3-12,2.5
			L21.5,40c0,0,1-2,0.1-2.1l-4.4,1.6l1.5-2.4c0,0-3.3-3.4-5.6-3.5l-5.9,2l3.4-2.7l-3.4-2.6L12.5,31.2z"/>
		<circle fill="#FFFFFF" cx="33.5" cy="36.3" r="1.1"/>
		<circle cx="33.5" cy="36.3" r="0.7"/>
		<path fill="none" stroke="#FBDAA6" stroke-width="0.576" stroke-miterlimit="10" d="M29.4,36.5c-0.1,0.3,0,0.7,0.2,1
			c0.1,0.2,0.3,0.5,0.5,0.6s0.4,0.3,0.7,0.3"/>
		<path fill="none" stroke="#FBDAA6" stroke-width="0.576" stroke-miterlimit="10" d="M27.4,36.5c-0.1,0.3,0,0.7,0.2,1
			c0.1,0.2,0.3,0.5,0.5,0.6s0.4,0.3,0.7,0.3"/>
		<path fill="none" stroke="#FBDAA6" stroke-width="0.576" stroke-miterlimit="10" d="M25.1,36.5c-0.1,0.3,0,0.7,0.2,1
			c0.1,0.2,0.3,0.5,0.5,0.6c0.2,0.2,0.4,0.3,0.7,0.3"/>
		<path fill="none" stroke="#FBDAA6" stroke-width="0.576" stroke-miterlimit="10" d="M23.2,36.5c-0.1,0.3,0,0.7,0.2,1
			c0.1,0.2,0.3,0.5,0.5,0.6s0.4,0.3,0.7,0.3"/>
		<path fill="none" stroke="#FBDAA6" stroke-width="0.576" stroke-miterlimit="10" d="M36.5,36.4c0,0-0.6-0.2-0.9,0.3"/>
		<path fill="none" stroke="#FBDAA6" stroke-width="0.576" stroke-miterlimit="10" d="M31.3,33.4c0,0-6.8-3.2-16.1-1.6"/>
		<path fill="none" stroke="#FBDAA6" stroke-width="0.576" stroke-miterlimit="10" d="M31.3,34c0,0-6.8-3.2-16.1-1.6"/>
		<path fill="#FBDAA6" d="M23,30.1c0,0-2.2-2-3-2.2"/>
		<path fill="none" stroke="#FBDAA6" stroke-width="0.576" stroke-miterlimit="10" d="M13.2,33.4c0,0,5.8-0.7,9.2,0.5"/>
		<path fill="none" stroke="#FBDAA6" stroke-width="0.576" stroke-miterlimit="10" d="M14.1,33.7c0,0,5.6,1.7,6.6,2.7"/>
		<path fill="none" stroke="#FBDAA6" stroke-width="0.576" stroke-miterlimit="10" d="M31.5,39.4c0,0-6.2,1.3-8.7-1.1"/>
	</g>
	<g>
		<path fill="#F15A24" d="M18.7,9.1l8.3,3.8l-0.6-4.3l3,5c0,0,7.9,7.2,7.9,10.5c0,0,0.3,0.9-0.2,1.4c-0.5,0.5-3.9,1.6-11.8-3.4
			l-2.9-1c0,0,1.8-1.3,1.1-1.8l-4.6-0.6l2.5-1.4c0,0-1.3-4.6-3.3-5.7l-6.1-1l4.3-0.8l-1.8-3.9L18.7,9.1z"/>
		<circle fill="#FFFFFF" cx="34.8" cy="23.4" r="1.1"/>
		<circle cx="34.8" cy="23.4" r="0.7"/>
		<path fill="none" stroke="#FBDAA6" stroke-width="0.576" stroke-miterlimit="10" d="M31.1,21.7c-0.2,0.3-0.3,0.6-0.3,0.9
			c0,0.3,0,0.5,0.1,0.8s0.3,0.5,0.5,0.6"/>
		<path fill="none" stroke="#FBDAA6" stroke-width="0.576" stroke-miterlimit="10" d="M29.4,20.8c-0.2,0.3-0.3,0.6-0.3,0.9
			c0,0.3,0,0.5,0.1,0.8c0.1,0.2,0.3,0.5,0.5,0.6"/>
		<path fill="none" stroke="#FBDAA6" stroke-width="0.576" stroke-miterlimit="10" d="M27.3,19.7c-0.2,0.3-0.3,0.6-0.3,0.9
			c0,0.3,0,0.5,0.1,0.8c0.1,0.2,0.3,0.5,0.5,0.6"/>
		<path fill="none" stroke="#FBDAA6" stroke-width="0.576" stroke-miterlimit="10" d="M25.6,18.8c-0.2,0.3-0.3,0.6-0.3,0.9
			c0,0.3,0,0.5,0.1,0.8c0.1,0.2,0.3,0.5,0.5,0.6"/>
		<path fill="none" stroke="#FBDAA6" stroke-width="0.576" stroke-miterlimit="10" d="M37.4,24.9c0,0-0.4-0.4-1-0.1"/>
		<path fill="none" stroke="#FBDAA6" stroke-width="0.576" stroke-miterlimit="10" d="M34.3,19.8c0,0-4.5-6-13.5-9"/>
		<path fill="none" stroke="#FBDAA6" stroke-width="0.576" stroke-miterlimit="10" d="M34,20.4c0,0-4.5-6-13.5-9"/>
		<path fill="#FBDAA6" d="M28.5,13c0,0-1-2.8-1.6-3.4"/>
		<path fill="none" stroke="#FBDAA6" stroke-width="0.576" stroke-miterlimit="10" d="M18.3,11.3c0,0,5.4,2.1,7.9,4.8"/>
		<path fill="none" stroke="#FBDAA6" stroke-width="0.576" stroke-miterlimit="10" d="M19,12c0,0,4.1,4.1,4.6,5.5"/>
		<path fill="none" stroke="#FBDAA6" stroke-width="0.576" stroke-miterlimit="10" d="M31.6,25.2c0,0-6.1-1.8-7.2-5.1"/>
	</g>
	<g>
		<path fill="#F15A24" d="M11.7,46.6l12.9-0.8L21,40.8l7.1,4.3c0,0,14.6,3.7,16.8,7.8c0,0,0.9,0.9,0.7,1.8
			c-0.2,0.9-3.8,4.6-16.9,3.6L24.3,59c0,0,1.4-2.8,0.1-3l-6.2,2.3l2.2-3.4c0,0-4.6-4.8-7.9-4.9l-8.3,2.8L9,48.9l-4.8-3.7L11.7,46.6z
			"/>
		<circle fill="#FFFFFF" cx="41.2" cy="53.7" r="1.5"/>
		<circle cx="41.2" cy="53.7" r="1"/>
		<path fill="none" stroke="#FBDAA6" stroke-width="0.576" stroke-miterlimit="10" d="M35.5,54.1c-0.1,0.5,0.1,0.9,0.3,1.4
			c0.2,0.3,0.4,0.6,0.6,0.9c0.3,0.2,0.6,0.4,1,0.4"/>
		<path fill="none" stroke="#FBDAA6" stroke-width="0.576" stroke-miterlimit="10" d="M32.7,54.1c-0.1,0.5,0.1,0.9,0.3,1.4
			c0.2,0.3,0.4,0.6,0.6,0.9c0.3,0.2,0.6,0.4,1,0.4"/>
		<path fill="none" stroke="#FBDAA6" stroke-width="0.576" stroke-miterlimit="10" d="M29.5,54.1c-0.1,0.5,0.1,0.9,0.3,1.4
			c0.2,0.3,0.4,0.6,0.6,0.9c0.3,0.2,0.6,0.4,1,0.4"/>
		<path fill="none" stroke="#FBDAA6" stroke-width="0.576" stroke-miterlimit="10" d="M26.7,54.1c-0.1,0.5,0.1,0.9,0.3,1.4
			c0.2,0.3,0.4,0.6,0.6,0.9c0.3,0.2,0.6,0.4,1,0.4"/>
		<path fill="none" stroke="#FBDAA6" stroke-width="0.576" stroke-miterlimit="10" d="M45.5,53.9c0,0-0.8-0.3-1.3,0.5"/>
		<path fill="none" stroke="#FBDAA6" stroke-width="0.576" stroke-miterlimit="10" d="M38.3,49.7c0,0-9.6-4.5-22.8-2.3"/>
		<path fill="none" stroke="#FBDAA6" stroke-width="0.576" stroke-miterlimit="10" d="M38.3,50.6c0,0-9.6-4.5-22.8-2.3"/>
		<path fill="#FBDAA6" d="M26.5,45.1c0,0-3-2.8-4.2-3.1"/>
		<path fill="none" stroke="#FBDAA6" stroke-width="0.576" stroke-miterlimit="10" d="M12.7,49.7c0,0,8.1-1,13,0.7"/>
		<path fill="none" stroke="#FBDAA6" stroke-width="0.576" stroke-miterlimit="10" d="M14,50.1c0,0,7.9,2.4,9.3,3.7"/>
		<path fill="none" stroke="#FBDAA6" stroke-width="0.576" stroke-miterlimit="10" d="M38.4,58.1c0,0-8.8,1.8-12.3-1.6"/>
	</g>
	<g>
		<path fill="#F15A24" d="M52.7,36.9l4.2-0.3L55.8,35l2.3,1.4c0,0,4.8,1.2,5.5,2.6c0,0,0.3,0.3,0.2,0.6c-0.1,0.3-1.2,1.5-5.6,1.2
			L56.9,41c0,0,0.5-0.9,0-1l-2,0.8l0.7-1.1c0,0-1.5-1.6-2.6-1.6l-2.7,0.9l1.6-1.3l-1.6-1.2L52.7,36.9z"/>
		<circle fill="#FFFFFF" cx="62.4" cy="39.3" r="0.5"/>
		<circle cx="62.4" cy="39.3" r="0.3"/>
		<path fill="none" stroke="#FBDAA6" stroke-width="0.576" stroke-miterlimit="10" d="M60.5,39.4c0,0.2,0,0.3,0.1,0.4
			c0.1,0.1,0.1,0.2,0.2,0.3s0.2,0.1,0.3,0.1"/>
		<path fill="none" stroke="#FBDAA6" stroke-width="0.576" stroke-miterlimit="10" d="M59.6,39.4c0,0.2,0,0.3,0.1,0.4
			c0.1,0.1,0.1,0.2,0.2,0.3s0.2,0.1,0.3,0.1"/>
		<path fill="none" stroke="#FBDAA6" stroke-width="0.576" stroke-miterlimit="10" d="M58.5,39.4c0,0.2,0,0.3,0.1,0.4
			c0.1,0.1,0.1,0.2,0.2,0.3c0.1,0.1,0.2,0.1,0.3,0.1"/>
		<path fill="none" stroke="#FBDAA6" stroke-width="0.576" stroke-miterlimit="10" d="M57.6,39.4c0,0.2,0,0.3,0.1,0.4
			c0.1,0.1,0.1,0.2,0.2,0.3c0.1,0.1,0.2,0.1,0.3,0.1"/>
		<path fill="none" stroke="#FBDAA6" stroke-width="0.576" stroke-miterlimit="10" d="M63.8,39.3c0,0-0.3-0.1-0.4,0.2"/>
		<path fill="none" stroke="#FBDAA6" stroke-width="0.576" stroke-miterlimit="10" d="M61.4,37.9c0,0-3.2-1.5-7.5-0.8"/>
		<path fill="none" stroke="#FBDAA6" stroke-width="0.576" stroke-miterlimit="10" d="M61.4,38.2c0,0-3.2-1.5-7.5-0.8"/>
		<path fill="#FBDAA6" d="M57.6,36.4c0,0-1-0.9-1.4-1"/>
		<path fill="none" stroke="#FBDAA6" stroke-width="0.576" stroke-miterlimit="10" d="M53,37.9c0,0,2.7-0.3,4.3,0.2"/>
		<path fill="none" stroke="#FBDAA6" stroke-width="0.576" stroke-miterlimit="10" d="M53.4,38.1c0,0,2.6,0.8,3.1,1.2"/>
		<path fill="none" stroke="#FBDAA6" stroke-width="0.576" stroke-miterlimit="10" d="M61.5,40.7c0,0-2.9,0.6-4-0.5"/>
	</g>
	<path fill="#FBDAA6" d="M54,60.1c0,0-2.2-2-3-2.2"/>
	<path fill="#F15A24" d="M67.1,65.7c-1.5-2.9-11.9-5.5-11.9-5.5l-5.1-3l2.5,3.5l-9.1,0.6l-5.3-1l3.4,2.6l-3.4,2.7l5.9-2
		c2.4,0.1,5.6,3.5,5.6,3.5l-1.5,2.4l4.4-1.6c0.9,0.2-0.1,2.1-0.1,2.1l3.1-0.5c0.5,0,1,0.1,1.5,0.1c-1.3-0.2-2.5-0.6-3.3-1.3l8.7,1.1
		c3.8-0.6,5-1.9,5.1-2.4C67.7,66.3,67.1,65.7,67.1,65.7z M45.1,63.7c0,0,5.6,1.7,6.6,2.7L45.1,63.7z M44.2,63.4c0,0,5.8-0.7,9.2,0.5
		L44.2,63.4z M54.8,68.1c-0.2-0.2-0.3-0.4-0.5-0.6c-0.1-0.3-0.2-0.6-0.2-1l1.3,1.9C55.3,68.4,55,68.3,54.8,68.1z M56.8,68.1
		c-0.2-0.2-0.3-0.4-0.5-0.6c-0.1-0.3-0.2-0.6-0.2-1l1.3,1.9C57.2,68.4,57,68.3,56.8,68.1z M59,68.1c-0.2-0.2-0.3-0.4-0.5-0.6
		c-0.1-0.3-0.2-0.6-0.2-1l1.3,1.9C59.5,68.4,59.2,68.3,59,68.1z M61,68.1c-0.2-0.2-0.3-0.4-0.5-0.6c-0.1-0.3-0.2-0.6-0.2-1l1.3,1.9
		C61.4,68.4,61.2,68.3,61,68.1z M62.3,64l-16.1-1.6c1-0.2,2-0.3,3-0.4l-3-0.3c9.4-1.6,16.1,1.6,16.1,1.6l-2.6-0.3
		C61.4,63.6,62.3,64,62.3,64z M64.5,67.3c-0.6,0-1.1-0.5-1.1-1.1c0-0.6,0.5-1.1,1.1-1.1c0.6,0,1.1,0.5,1.1,1.1
		C65.5,66.8,65,67.3,64.5,67.3z M66.5,66.7c0.3-0.5,0.9-0.3,0.9-0.3L66.5,66.7z"/>
</g>
</svg>
