<?xml version="1.0" encoding="utf-8"?>
<!-- Generator: Adobe Illustrator 18.0.0, SVG Export Plug-In . SVG Version: 6.00 Build 0)  -->
<!DOCTYPE svg PUBLIC "-//W3C//DTD SVG 1.1//EN" "http://www.w3.org/Graphics/SVG/1.1/DTD/svg11.dtd">
<svg version="1.1" xmlns="http://www.w3.org/2000/svg" xmlns:xlink="http://www.w3.org/1999/xlink" x="0px" y="0px"
	 viewBox="0 0 400 400" enable-background="new 0 0 400 400" xml:space="preserve">
<g id="Layer_2">
	<rect x="1.3" y="0.3" fill="#DCE3EB" width="398.5" height="399.3"/>
</g>
<g id="Layer_1">
	<path fill="#281E28" d="M311,487.8l-27.3-226.7c0,0-20.2-34.7-29-36.8c0.8,1.4-40.8-17.4-43.8-16.9c0.9-0.7-29-7-46.7-24.3
		c1.7,0.7,49.9,15.8,49.9,15.8l16.5,4.4l21.4,11.4l24.6,26.6l-20.1-24.8l-21.8-14l-15.4-10.4l-30.4-20.8l13.3-1.8l36.1,26.6l9.4,2.5
		c0,0-7-12.9-5.2-17.9c0.6,0.4,9.7-1.7,16.7,2.8c-0.8,1.2-15.8-21.3-15.8-21.3l11.5,9l15.8,18.2l5.9-31.9l7.5-1.8l-7,43.6l5.9-8.4
		c0,0,5.5-31.3,15.2-32.5l-1-5.6l8.1-1.4l1.9,10.7l-2,18.7l10.6-8.1l19.4-26.5l4.1-0.7c0,0-28.4,43.8-39.2,42
		c2.1,0.2-5.4,22.9-12.5,24.2c2.3,1.2-2,21.3-2,21.3l-1.9,12.9l8.6-16.7c0,0,0.1-23.1,9.8-24.8c0.5-0.1,9.4-5.8,9.4-5.8l7.9-14.5
		l14.9-25.7l20.5-14.6l-17.3,20.8l-13.1,20.6l4.6-0.8c0,0,13.4-13.3,29.8-12.1c2.5,2.2,13.1,2.9,18,7.3c0.7,0.9-20.6-4.2-20.6-4.2
		l-51.5,37.9c0,0-19.1,31.6-15.8,47.3c-0.7,2.2,26,225.3,26,225.3l-6.3,2.7"/>
	<path fill="#281E28" d="M311,487.8l-27.3-226.7c0,0-20.2-34.7-29-36.8c0.8,1.4-40.8-17.4-43.8-16.9c0.9-0.7-29-7-46.7-24.3
		c1.7,0.7,49.9,15.8,49.9,15.8l16.5,4.4l21.4,11.4l24.6,26.6l-20.1-24.8l-21.8-14l-15.4-10.4l-30.4-20.8l13.3-1.8l36.1,26.6l9.4,2.5
		c0,0-7-12.9-5.2-17.9c0.6,0.4,9.7-1.7,16.7,2.8c-0.8,1.2-15.8-21.3-15.8-21.3l11.5,9l15.8,18.2l5.9-31.9l7.5-1.8l-7,43.6l5.9-8.4
		c0,0,5.5-31.3,15.2-32.5l-1-5.6l8.1-1.4l1.9,10.7l-2,18.7l10.6-8.1l19.4-26.5l4.1-0.7c0,0-28.4,43.8-39.2,42
		c2.1,0.2-5.4,22.9-12.5,24.2c2.3,1.2-2,21.3-2,21.3l-1.9,12.9l8.6-16.7c0,0,0.1-23.1,9.8-24.8c0.5-0.1,9.4-5.8,9.4-5.8l7.9-14.5
		l14.9-25.7l20.5-14.6l-17.3,20.8l-13.1,20.6l4.6-0.8c0,0,13.4-13.3,29.8-12.1c2.5,2.2,13.1,2.9,18,7.3c0.7,0.9-20.6-4.2-20.6-4.2
		l-51.5,37.9c0,0-19.1,31.6-15.8,47.3c-0.7,2.2,26,225.3,26,225.3l-6.3,2.7"/>
	<path fill="#FF3176" d="M322.6,564.9l-33.5-278.5c0,0-24.9-42.6-35.6-45.2c1,1.8-50.1-21.4-53.8-20.8c1.1-0.8-35.6-8.5-57.3-29.8
		c2.1,0.9,61.3,19.5,61.3,19.5l20.3,5.4l26.3,14l30.2,32.7l-24.6-30.4l-26.8-17.2l-19-12.7l-37.3-25.6l16.3-2.2l44.4,32.7l11.5,3.1
		c0,0-8.6-15.9-6.4-22c0.7,0.5,11.9-2.1,20.6,3.5c-1,1.5-19.4-26.2-19.4-26.2l14.2,11l19.4,22.3l7.3-39.2l9.3-2.3l-8.6,53.6
		l7.2-10.3c0,0,6.7-38.5,18.7-40l-1.2-6.9l10-1.8l2.3,13.1l-2.4,22.9l13-10l23.9-32.5l5-0.9c0,0-34.9,53.7-48.2,51.6
		c2.6,0.2-6.6,28.2-15.4,29.7c2.8,1.4-2.5,26.2-2.5,26.2l-2.4,15.9l10.5-20.5c0,0,0.2-28.3,12-30.4c0.6-0.1,11.6-7.2,11.6-7.2
		l9.7-17.8l18.3-31.5l25.2-17.9L355.1,168L339,193.4l5.6-1c0,0,16.4-16.4,36.6-14.8c3,2.7,16.1,3.6,22.2,9
		c0.8,1.1-25.4-5.2-25.4-5.2l-63.2,46.5c0,0-23.4,38.9-19.4,58.1c-0.8,2.7,31.9,276.8,31.9,276.8l-7.8,3.3"/>
	<path fill="#984F15" d="M314.6,500.7L287.3,274c0,0-20.2-34.7-29-36.8c0.8,1.4-40.8-17.4-43.8-16.9c0.9-0.7-29-7-46.7-24.3
		c1.7,0.7,49.9,15.8,49.9,15.8l16.5,4.4l21.4,11.4l24.6,26.6l-20.1-24.8l-21.8-14l-15.4-10.4l-30.4-20.8l13.3-1.8l36.1,26.6l9.4,2.5
		c0,0-7-12.9-5.2-17.9c0.6,0.4,9.7-1.7,16.7,2.8c-0.8,1.2-15.8-21.3-15.8-21.3l11.5,9l15.8,18.2l5.9-31.9l7.5-1.8l-7,43.6l5.9-8.4
		c0,0,5.5-31.3,15.2-32.5l-1-5.6l8.1-1.4l1.9,10.7l-2,18.7l10.6-8.1l19.4-26.5l4.1-0.7c0,0-28.4,43.8-39.2,42
		c2.1,0.2-5.4,22.9-12.5,24.2c2.3,1.2-2,21.3-2,21.3l-1.9,12.9l8.6-16.7c0,0,0.1-23.1,9.8-24.8c0.5-0.1,9.4-5.8,9.4-5.8l7.9-14.5
		l14.9-25.7l20.5-14.6l-17.3,20.8l-13.1,20.6l4.6-0.8c0,0,13.4-13.3,29.8-12.1c2.5,2.2,13.1,2.9,18,7.3c0.7,0.9-20.6-4.2-20.6-4.2
		l-51.5,37.9c0,0-19.1,31.6-15.8,47.3c-0.7,2.2,26,225.3,26,225.3l-6.3,2.7"/>
	<path fill="#281E28" d="M62.1,527.8l8-147.2c0,0-9-24.3-14.3-26.6c0.3,1-24-15.7-26-15.7c0.7-0.3-17.7-7.7-27-20.7
		c1,0.7,30,15.7,30,15.7l10,4.7l12.3,9.7l12.7,19.7l-10-18l-12.3-11.3l-8.7-8.3l-17-16.7l8.7,0.3l20,21l5.7,2.7c0,0-3-9-1.3-12
		c0.3,0.3,6.3,0,10.3,3.7c-0.7,0.7-7.7-15.3-7.7-15.3l6.3,7l8,13.3l7.3-19.7l5-0.3l-9.3,27l4.7-4.7c0,0,7-19.3,13.3-19v-3.7h5.3v7
		l-3.3,11.7l7.7-4l15.3-14.7h2.7c0,0-23,24.7-29.6,22.3c1.3,0.3-6,14-10.7,14c1.3,1-3.7,13.3-3.7,13.3l-2.7,8l7.3-9.7
		c0,0,2.7-14.7,9-14.7c0.3,0,6.7-2.7,6.7-2.7l6.7-8.3l12.3-14.7l14.7-7l-13.3,11.3l-10.7,11.7h3c0,0,10-7,20.3-4.3
		c1.3,1.7,8,3.3,10.7,6.7c0.3,0.7-12.7-5-12.7-5l-37,18.3c0,0-15.7,18-15.3,28.3c-0.7,1.3-8.7,146.2-8.7,146.2l-4.3,1"/>
	<path fill="#984F15" d="M62.1,527.8l8-147.2c0,0-9-24.3-14.3-26.6c0.3,1-24-15.7-26-15.7c0.7-0.3-17.7-7.7-27-20.7
		c1,0.7,30,15.7,30,15.7l10,4.7l12.3,9.7l12.7,19.7l-10-18l-12.3-11.3l-8.7-8.3l-17-16.7l8.7,0.3l20,21l5.7,2.7c0,0-3-9-1.3-12
		c0.3,0.3,6.3,0,10.3,3.7c-0.7,0.7-7.7-15.3-7.7-15.3l6.3,7l8,13.3l7.3-19.7l5-0.3l-9.3,27l4.7-4.7c0,0,7-19.3,13.3-19v-3.7h5.3v7
		l-3.3,11.7l7.7-4l15.3-14.7h2.7c0,0-23,24.7-29.6,22.3c1.3,0.3-6,14-10.7,14c1.3,1-3.7,13.3-3.7,13.3l-2.7,8l7.3-9.7
		c0,0,2.7-14.7,9-14.7c0.3,0,6.7-2.7,6.7-2.7l6.7-8.3l12.3-14.7l14.7-7l-13.3,11.3l-10.7,11.7h3c0,0,10-7,20.3-4.3
		c1.3,1.7,8,3.3,10.7,6.7c0.3,0.7-12.7-5-12.7-5l-37,18.3c0,0-15.7,18-15.3,28.3c-0.7,1.3-8.7,146.2-8.7,146.2l-4.3,1"/>
	<path fill="#FF3176" d="M60.9,578.1l9.8-180.9c0,0-11-29.9-17.6-32.7c0.4,1.2-29.5-19.2-31.9-19.2c0.8-0.4-21.7-9.4-33.1-25.4
		c1.2,0.8,36.8,19.2,36.8,19.2l12.3,5.7l15.1,11.9l15.6,24.1l-12.3-22.1l-15.1-13.9l-10.6-10.2L8.9,314.1l10.6,0.4l24.6,25.8l7,3.3
		c0,0-3.7-11-1.6-14.7c0.4,0.4,7.8,0,12.7,4.5c-0.8,0.8-9.4-18.8-9.4-18.8l7.8,8.6l9.8,16.4l9-24.1l6.1-0.4L74,348.1l5.7-5.7
		c0,0,8.6-23.7,16.4-23.3v-4.5h6.5v8.6l-4.1,14.3l9.4-4.9l18.8-18h3.3c0,0-28.2,30.3-36.4,27.4c1.6,0.4-7.4,17.2-13.1,17.2
		c1.6,1.2-4.5,16.4-4.5,16.4l-3.3,9.8l9-11.9c0,0,3.3-18,11-18c0.4,0,8.2-3.3,8.2-3.3l8.2-10.2l15.1-18l18-8.6L126,329.3l-13.1,14.3
		h3.7c0,0,12.3-8.6,25-5.3c1.6,2,9.8,4.1,13.1,8.2c0.4,0.8-15.6-6.1-15.6-6.1l-45.4,22.5c0,0-19.2,22.1-18.8,34.8
		c-0.8,1.6-10.6,179.6-10.6,179.6l-5.3,1.2"/>
	<path fill="#281E28" d="M63,536.4l8-147.2c0,0-9-24.3-14.3-26.6c0.3,1-24-15.7-26-15.7c0.7-0.3-17.7-7.7-27-20.7
		c1,0.7,30,15.7,30,15.7l10,4.7l12.3,9.7l12.7,19.7l-10-18l-12.3-11.3l-8.7-8.3l-17-16.7l8.7,0.3l20,21l5.7,2.7c0,0-3-9-1.3-12
		c0.3,0.3,6.3,0,10.3,3.7c-0.7,0.7-7.7-15.3-7.7-15.3l6.3,7l8,13.3l7.3-19.7l5-0.3l-9.3,27l4.7-4.7c0,0,7-19.3,13.3-19v-3.7H97v7
		l-3.3,11.7l7.7-4l15.3-14.7h2.7c0,0-23,24.7-29.6,22.3c1.3,0.3-6,14-10.7,14c1.3,1-3.7,13.3-3.7,13.3l-2.7,8l7.3-9.7
		c0,0,2.7-14.7,9-14.7c0.3,0,6.7-2.7,6.7-2.7l6.7-8.3l12.3-14.7l14.7-7L116,333.8l-10.7,11.7h3c0,0,10-7,20.3-4.3
		c1.3,1.7,8,3.3,10.7,6.7c0.3,0.7-12.7-5-12.7-5l-37,18.3c0,0-15.7,18-15.3,28.3c-0.7,1.3-8.7,146.2-8.7,146.2l-4.3,1"/>
	<path fill="#281E28" d="M-43.2,327.5l87.3-125.4c0,0,5.3-26.3,1.9-31.3c-0.3,1.1-12.6-26.9-14.4-28c0.8,0.1-11.4-16.4-12.5-32.9
		c0.5,1.1,17.9,30.1,17.9,30.1l6.3,9.6l5.6,15.2l0.4,24.2l1-21.3l-4.7-16.7l-3.1-12.1l-5.9-23.9l7.4,5l6.2,29.4l3.5,5.4
		c0,0,2.3-9.6,5.4-11.3c0.1,0.5,5.6,3.5,7.1,8.9c-1,0.2,1.6-17.7,1.6-17.7l1.8,9.6l-0.2,16.1l17.2-13.3l4.6,2.4l-22.9,18.7l6.7-1.6
		c0,0,16.7-13.2,22.1-9.5l2-3.2l4.7,2.9l-3.8,6.2l-9.3,8.5l8.9,0.7l21.5-4.6l2.3,1.5c0,0-33.7,9.2-38.3,3.5c1,1-12.9,9.1-17,6.5
		c0.6,1.6-10.5,9.7-10.5,9.7l-6.7,5.6l11.7-4.5c0,0,10.3-11.5,15.9-8c0.3,0.2,7.3,1.3,7.3,1.3l10.4-3.7l18.8-6.2l16.7,1.8l-17.9,2.7
		l-15.7,4.5l2.6,1.6c0,0,12.6-0.7,20.3,7.3c0.3,2.2,5.2,7.3,5.8,11.7c-0.1,0.8-8.4-11.3-8.4-11.3l-42.6-4c0,0-23.6,7.3-28.9,16.6
		c-1.3,0.8-87.4,124.1-87.4,124.1l-4.4-1.5"/>
	<path fill="#281E28" d="M-43.2,327.5l87.3-125.4c0,0,5.3-26.3,1.9-31.3c-0.3,1.1-12.6-26.9-14.4-28c0.8,0.1-11.4-16.4-12.5-32.9
		c0.5,1.1,17.9,30.1,17.9,30.1l6.3,9.6l5.6,15.2l0.4,24.2l1-21.3l-4.7-16.7l-3.1-12.1l-5.9-23.9l7.4,5l6.2,29.4l3.5,5.4
		c0,0,2.3-9.6,5.4-11.3c0.1,0.5,5.6,3.5,7.1,8.9c-1,0.2,1.6-17.7,1.6-17.7l1.8,9.6l-0.2,16.1l17.2-13.3l4.6,2.4l-22.9,18.7l6.7-1.6
		c0,0,16.7-13.2,22.1-9.5l2-3.2l4.7,2.9l-3.8,6.2l-9.3,8.5l8.9,0.7l21.5-4.6l2.3,1.5c0,0-33.7,9.2-38.3,3.5c1,1-12.9,9.1-17,6.5
		c0.6,1.6-10.5,9.7-10.5,9.7l-6.7,5.6l11.7-4.5c0,0,10.3-11.5,15.9-8c0.3,0.2,7.3,1.3,7.3,1.3l10.4-3.7l18.8-6.2l16.7,1.8l-17.9,2.7
		l-15.7,4.5l2.6,1.6c0,0,12.6-0.7,20.3,7.3c0.3,2.2,5.2,7.3,5.8,11.7c-0.1,0.8-8.4-11.3-8.4-11.3l-42.6-4c0,0-23.6,7.3-28.9,16.6
		c-1.3,0.8-87.4,124.1-87.4,124.1l-4.4-1.5"/>
	<path fill="#FF3176" d="M-71.7,371.2l107.3-154c0,0,6.6-32.3,2.3-38.4c-0.3,1.3-15.5-33-17.6-34.3c0.9,0.1-14-20.1-15.4-40.4
		c0.6,1.4,22,37,22,37l7.7,11.7l6.9,18.7l0.5,29.7l1.2-26.2l-5.8-20.5l-3.8-14.8l-7.2-29.4l9.2,6.2l7.6,36.1l4.3,6.7
		c0,0,2.8-11.7,6.6-13.9c0.1,0.6,6.9,4.2,8.7,10.9c-1.2,0.3,2-21.7,2-21.7l2.2,11.8l-0.3,19.8l21.1-16.4l5.6,3l-28.2,23l8.2-1.9
		c0,0,20.5-16.2,27.1-11.6l2.5-4l5.8,3.6l-4.7,7.6l-11.4,10.4l11,0.8l26.4-5.6l2.9,1.8c0,0-41.4,11.3-47,4.3
		c1.2,1.3-15.9,11.1-20.9,8c0.8,2-12.9,12-12.9,12l-8.2,6.9l14.4-5.5c0,0,12.7-14.1,19.5-9.8c0.4,0.2,9,1.6,9,1.6l12.8-4.6l23.2-7.6
		l20.5,2.2l-22,3.3l-19.3,5.5l3.2,2c0,0,15.5-0.9,24.9,8.9c0.3,2.7,6.4,9,7.1,14.3c-0.1,0.9-10.4-13.9-10.4-13.9l-52.3-4.9
		c0,0-29,9-35.5,20.4c-1.6,1-107.3,152.5-107.3,152.5l-5.4-1.8"/>
	<path fill="#984F15" d="M-47.1,335.5l87.3-125.4c0,0,5.3-26.3,1.9-31.3c-0.3,1.1-12.6-26.9-14.4-28c0.8,0.1-11.4-16.4-12.5-32.9
		c0.5,1.1,17.9,30.1,17.9,30.1l6.3,9.6L45,173l0.4,24.2l1-21.3l-4.7-16.7l-3.1-12.1l-5.9-23.9l7.4,5l6.2,29.4l3.5,5.4
		c0,0,2.3-9.6,5.4-11.3c0.1,0.5,5.6,3.5,7.1,8.9c-1,0.2,1.6-17.7,1.6-17.7l1.8,9.6l-0.2,16.1l17.2-13.3l4.6,2.4l-22.9,18.7l6.7-1.6
		c0,0,16.7-13.2,22.1-9.5l2-3.2l4.7,2.9l-3.8,6.2l-9.3,8.5l8.9,0.7l21.5-4.6l2.3,1.5c0,0-33.7,9.2-38.3,3.5c1,1-12.9,9.1-17,6.5
		c0.6,1.6-10.5,9.7-10.5,9.7l-6.7,5.6l11.7-4.5c0,0,10.3-11.5,15.9-8c0.3,0.2,7.3,1.3,7.3,1.3l10.4-3.7l18.8-6.2l16.7,1.8L110,186
		l-15.7,4.5l2.6,1.6c0,0,12.6-0.7,20.3,7.3c0.3,2.2,5.2,7.3,5.8,11.7c-0.1,0.8-8.4-11.3-8.4-11.3l-42.6-4c0,0-23.6,7.3-28.9,16.6
		c-1.3,0.8-87.4,124.1-87.4,124.1l-4.4-1.5"/>
	<path fill="#281E28" d="M478,161.2L369.7,95.7c0,0-22-3-26,0.1c0.9,0.2-21.5,11.8-22.3,13.3c0-0.6-12.9,10.3-26.5,12.1
		c0.9-0.5,24-16.4,24-16.4l7.6-5.7l12.3-5.4l20-1.6l-17.6,0.3l-13.5,4.8l-9.8,3.2l-19.5,6.1l3.7-6.4l24-6.7l4.3-3.2
		c0,0-8-1.4-9.6-3.8c0.4-0.1,2.6-4.8,6.9-6.3c0.2,0.8-14.7-0.4-14.7-0.4l7.8-2l13.3-0.7l-11.9-13.5l1.8-3.9l16.7,18l-1.6-5.4
		c0,0-11.8-13.1-9-17.8l-2.8-1.5l2.2-4l5.3,2.8l7.5,7.2l0.1-7.4L337.2,34l1.1-2c0,0,9.4,27.3,4.9,31.4c0.8-0.9,8.2,10.2,6.3,13.7
		c1.3-0.6,8.6,8.2,8.6,8.2l5,5.2l-4.4-9.4c0,0-10-7.9-7.5-12.7c0.1-0.3,0.7-6.1,0.7-6.1l-3.6-8.4l-6.1-15.2l0.6-13.9l3.2,14.7
		l4.5,12.8l1.2-2.3c0,0-1.3-10.4,4.9-17.1c1.8-0.3,5.7-4.7,9.3-5.4c0.6,0-8.9,7.6-8.9,7.6l-1.1,35.4c0,0,7.3,19.1,15.2,23
		c0.7,1,107.2,65.6,107.2,65.6l-1,3.7"/>
	<path fill="#984F15" d="M478,161.2L369.7,95.7c0,0-22-3-26,0.1c0.9,0.2-21.5,11.8-22.3,13.3c0-0.6-12.9,10.3-26.5,12.1
		c0.9-0.5,24-16.4,24-16.4l7.6-5.7l12.3-5.4l20-1.6l-17.6,0.3l-13.5,4.8l-9.8,3.2l-19.5,6.1l3.7-6.4l24-6.7l4.3-3.2
		c0,0-8-1.4-9.6-3.8c0.4-0.1,2.6-4.8,6.9-6.3c0.2,0.8-14.7-0.4-14.7-0.4l7.8-2l13.3-0.7l-11.9-13.5l1.8-3.9l16.7,18l-1.6-5.4
		c0,0-11.8-13.1-9-17.8l-2.8-1.5l2.2-4l5.3,2.8l7.5,7.2l0.1-7.4L337.2,34l1.1-2c0,0,9.4,27.3,4.9,31.4c0.8-0.9,8.2,10.2,6.3,13.7
		c1.3-0.6,8.6,8.2,8.6,8.2l5,5.2l-4.4-9.4c0,0-10-7.9-7.5-12.7c0.1-0.3,0.7-6.1,0.7-6.1l-3.6-8.4l-6.1-15.2l0.6-13.9l3.2,14.7
		l4.5,12.8l1.2-2.3c0,0-1.3-10.4,4.9-17.1c1.8-0.3,5.7-4.7,9.3-5.4c0.6,0-8.9,7.6-8.9,7.6l-1.1,35.4c0,0,7.3,19.1,15.2,23
		c0.7,1,107.2,65.6,107.2,65.6l-1,3.7"/>
	<path fill="#FF3176" d="M515.6,182.5L382.6,102c0,0-27.1-3.7-31.9,0.1c1.1,0.2-26.5,14.5-27.4,16.4c0-0.8-15.9,12.6-32.6,14.8
		c1.1-0.6,29.4-20.1,29.4-20.1l9.3-7l15.1-6.7l24.6-2l-21.7,0.4l-16.6,5.8l-12,3.9l-23.9,7.5l4.6-7.9l29.4-8.2l5.3-3.9
		c0,0-9.8-1.7-11.8-4.7c0.5-0.1,3.1-5.9,8.5-7.8c0.3,0.9-18-0.5-18-0.5l9.6-2.4l16.4-0.8l-14.6-16.6l2.2-4.8l20.5,22.1l-2-6.6
		c0,0-14.5-16.1-11-21.8l-3.4-1.8l2.6-5l6.5,3.5l9.2,8.9l0.1-9.1l-6-21.5l1.3-2.5c0,0,11.5,33.6,6,38.6c1-1.1,10,12.5,7.7,16.8
		c1.6-0.7,10.6,10,10.6,10l6.1,6.4l-5.3-11.6c0,0-12.3-9.7-9.2-15.6c0.2-0.3,0.8-7.5,0.8-7.5l-4.4-10.3l-7.5-18.7l0.8-17.1l3.9,18
		l5.6,15.7l1.5-2.8c0,0-1.5-12.8,6.1-21c2.2-0.4,7.1-5.8,11.5-6.6c0.8,0-10.9,9.3-10.9,9.3l-1.3,43.5c0,0,9,23.5,18.7,28.3
		c0.9,1.3,131.7,80.6,131.7,80.6l-1.2,4.5"/>
	<path fill="#281E28" d="M484.8,164L376.6,98.5c0,0-22-3-26,0.1c0.9,0.2-21.5,11.8-22.3,13.3c0-0.6-12.9,10.3-26.5,12.1
		c0.9-0.5,24-16.4,24-16.4l7.6-5.7l12.3-5.4l20-1.6l-17.6,0.3l-13.5,4.8l-9.8,3.2l-19.5,6.1l3.7-6.4l24-6.7l4.3-3.2
		c0,0-8-1.4-9.6-3.8c0.4-0.1,2.6-4.8,6.9-6.3c0.2,0.8-14.7-0.4-14.7-0.4l7.8-2l13.3-0.7L329,66.3l1.8-3.9l16.7,18l-1.6-5.4
		c0,0-11.8-13.1-9-17.8l-2.8-1.5l2.2-4l5.3,2.8l7.5,7.2l0.1-7.4l-4.9-17.5l1.1-2c0,0,9.4,27.3,4.9,31.4c0.8-0.9,8.2,10.2,6.3,13.7
		c1.3-0.6,8.6,8.2,8.6,8.2l5,5.2l-4.4-9.4c0,0-10-7.9-7.5-12.7c0.1-0.3,0.7-6.1,0.7-6.1l-3.6-8.4l-6.1-15.2l0.6-13.9l3.2,14.7
		l4.5,12.8l1.2-2.3c0,0-1.3-10.4,4.9-17.1c1.8-0.3,5.7-4.7,9.3-5.4c0.6,0-8.9,7.6-8.9,7.6L363,73.1c0,0,7.3,19.1,15.2,23
		c0.7,1,107.2,65.6,107.2,65.6l-1,3.7"/>
</g>
</svg>
