<?xml version="1.0" encoding="utf-8"?>
<!-- Generator: Adobe Illustrator 18.0.0, SVG Export Plug-In . SVG Version: 6.00 Build 0)  -->
<!DOCTYPE svg PUBLIC "-//W3C//DTD SVG 1.1//EN" "http://www.w3.org/Graphics/SVG/1.1/DTD/svg11.dtd">
<svg version="1.1" xmlns="http://www.w3.org/2000/svg" xmlns:xlink="http://www.w3.org/1999/xlink" x="0px" y="0px"
	 viewBox="0 0 400 400" enable-background="new 0 0 400 400" xml:space="preserve">
<g id="Rock">
</g>
<g id="Layer_1">
	<g>
		<image overflow="visible" width="99" height="87" xlink:href="89F5BA34DA98AB8.png"  transform="matrix(1 0 0 1 213 54)">
		</image>
	</g>
	<g>
		<path fill="none" stroke="#B4837E" stroke-width="9" stroke-miterlimit="10" d="M194.5,81.2c0,0,7.7-0.3,7.7,2.3"/>
		<path fill="#F9DDE5" d="M-1.1,346.1c0,0,65.4-95.5,74.8-97.2c-0.9-0.9,36.1-74.8,36.1-74.8s23.2-62.8,31.8-67.9
			c-0.9,0,9.5-27.5,24.9-24.1c1.7,1.7,13.8-2.6,18.9,0.9c0-0.9,12.9-15.5,22.4-7.7c-0.9-0.9,6-19.8,21.5-8.6
			c-0.9,1.7,6.9,7.7-6,22.4c2.6,0.9-7.7,11.2-1.7,12c1.7,0.9,17.2-43.9,33.5-31.8c0,0.9,24.1,17.2-5.2,51.6
			c1.7,1.7-13.8,32.7-37.8,51.6c2.6,1.7-28.4,36.1-28.4,36.1l-16.3,31.8c0,0-6,22.4-10.3,30.1c-0.9,0.9-12,24.1,6,57.6
			c2.6,0,12.9,61.1,6,70.5c-1.7-2.6-167.7,0-167.7,0S-1.1,347-1.1,346.1z"/>
		<path fill="#3555FC" d="M240.5,83.8l13.8,6.9l5.2-9.5c0,0-13.8-10.3-18.1-8.6C242.3,74.4,240.5,83.8,240.5,83.8z"/>
		<path fill="#3555FC" d="M221.6,67.6l6.4,5.2l2.6-1c0,0-1-8.7-8.4-7.4C222.3,63.8,221.6,67.6,221.6,67.6z"/>
		<path fill="#3555FC" d="M198.1,75.4l6.4,2.6c0,0,3.5-3.5-1.3-4.2C203.9,73.8,201.3,71.5,198.1,75.4z"/>
		<path fill="#3555FC" d="M164.9,82.1l3.5,1.3C168.4,83.4,172,80.2,164.9,82.1z"/>
		<path fill="#3555FC" d="M187.8,82.8c0,0-1.9-2.3-4.8-1.6S187.8,77.6,187.8,82.8z"/>
	</g>
	<rect x="0" y="-0.3" opacity="0.44" fill="#0069CD" stroke="#0069CD" stroke-miterlimit="10" width="398" height="397.7"/>
	<circle opacity="0.44" fill="#0069CD" stroke="#0069CD" stroke-miterlimit="10" cx="88" cy="92" r="16"/>
	<circle opacity="0.44" fill="#0069CD" stroke="#0069CD" stroke-miterlimit="10" cx="196" cy="50" r="11.1"/>
	<circle opacity="0.44" fill="#0069CD" stroke="#0069CD" stroke-miterlimit="10" cx="273" cy="212" r="6.3"/>
</g>
</svg>
