<?xml version="1.0" encoding="utf-8"?>
<!-- Generator: Adobe Illustrator 18.0.0, SVG Export Plug-In . SVG Version: 6.00 Build 0)  -->
<!DOCTYPE svg PUBLIC "-//W3C//DTD SVG 1.1//EN" "http://www.w3.org/Graphics/SVG/1.1/DTD/svg11.dtd">
<svg version="1.1" id="Layer_1" xmlns="http://www.w3.org/2000/svg" xmlns:xlink="http://www.w3.org/1999/xlink" x="0px" y="0px"
	 viewBox="0 0 72 72" enable-background="new 0 0 72 72" xml:space="preserve">
<path d="M19.8,54.5v-37c0-3.5,2.8-6.3,6.3-6.3h19.8c3.5,0,6.3,2.8,6.3,6.3v37c0,3.5-2.8,6.3-6.3,6.3H26.1
	C22.6,60.8,19.8,57.9,19.8,54.5z"/>
<rect x="24.3" y="16.5" fill="#B3B3B3" width="23.3" height="35.1"/>
<circle fill="#666666" cx="36" cy="56.7" r="2.3"/>
<path fill="#4D4D4D" d="M40.1,14.6h-8.2c-0.3,0-0.6-0.3-0.6-0.6v0c0-0.3,0.3-0.6,0.6-0.6h8.2c0.3,0,0.6,0.3,0.6,0.6v0
	C40.7,14.3,40.4,14.6,40.1,14.6z"/>
</svg>
