<?xml version="1.0" encoding="utf-8"?>
<!-- Generator: Adobe Illustrator 18.0.0, SVG Export Plug-In . SVG Version: 6.00 Build 0)  -->
<!DOCTYPE svg PUBLIC "-//W3C//DTD SVG 1.1//EN" "http://www.w3.org/Graphics/SVG/1.1/DTD/svg11.dtd">
<svg version="1.1" id="Layer_1" xmlns="http://www.w3.org/2000/svg" xmlns:xlink="http://www.w3.org/1999/xlink" x="0px" y="0px"
	 viewBox="0 0 72 72" enable-background="new 0 0 72 72" xml:space="preserve">
<g>
	<path fill="#CCD3E6" d="M59.9,51.8H11.7c-0.8,0-1.5-0.7-1.5-1.5V17.5c0-0.8,0.7-1.5,1.5-1.5h48.2c0.8,0,1.5,0.7,1.5,1.5v32.8
		C61.4,51.1,60.7,51.8,59.9,51.8z"/>
	<path fill="#CCD3E6" d="M62.7,56.1H8.9c-0.8,0-1.5-0.7-1.5-1.5v-0.3c0-0.8,0.7-1.5,1.5-1.5h53.8c0.8,0,1.5,0.7,1.5,1.5v0.3
		C64.2,55.5,63.5,56.1,62.7,56.1z"/>
	<rect x="13.1" y="18" width="45.5" height="31.8"/>
	<polygon fill="#474E64" points="13,49.8 13.1,18 58.5,18 	"/>
</g>
</svg>
