<?xml version="1.0" encoding="utf-8"?>
<!-- Generator: Adobe Illustrator 18.0.0, SVG Export Plug-In . SVG Version: 6.00 Build 0)  -->
<!DOCTYPE svg PUBLIC "-//W3C//DTD SVG 1.1//EN" "http://www.w3.org/Graphics/SVG/1.1/DTD/svg11.dtd">
<svg version="1.1" id="Layer_1" xmlns="http://www.w3.org/2000/svg" xmlns:xlink="http://www.w3.org/1999/xlink" x="0px" y="0px"
	 viewBox="0 0 400 400" enable-background="new 0 0 400 400" xml:space="preserve">
<g>
	<path fill="#D4B998" d="M124.1,272c0,0-56.5-17.7-54.8-33.2c0.6,0.6,10-23.3,65.9-27.7c-0.6,1.1-5-6.6-2.8-11.1
		c0,0.6-67.6,7.8-74.2,37.7S124.1,272,124.1,272z"/>
	<path fill="#FFDDD8" d="M220.2,230c0,0,9.7,6.8,15.3,7c-2.2-0.3,3.6,11.1,13,12.3c2.1,0.8,14.4,1.3,17.6,6.2
		c0.1-0.5-4.7-0.8-4.7-0.8l0.8,4l-3.4-1l-5.1-1l1.3,2.8l-17-5.5l-2.3,6l-3-6l-8-8.5l-3.6-6.6C221.1,238.8,216.2,233.9,220.2,230z"/>
	<polygon fill="#FFDDD8" points="270.9,243.8 270.9,248.6 276.6,249.8 281.8,253.4 281.8,246 286.4,254.5 286.6,246.9 290.8,252.4 
		288.4,243 279.9,241.9 279.7,229 266.3,236.2 	"/>
	<path fill="#634931" d="M132.4,200l8.9-5c0,0-5.5-55.4,64.8-62c0,0.6,27.1-2.8,45.4,18.8c0.6,1.1,15,1.1,22.2,9.4
		c1.1,1.1,45.4,10.5,55.4,21c1.1,1.7,8.9-1.7,11.6,8.9c-0.6,0-7.2,28.8-53.7,32.1c0.6,1.1-33.8,24.9-46.5,19.4
		c0.6,2.2-11.1,9.4-11.1,9.4s-50.4-12.2-54.3-24.4c0.6,2.8-24.9,3.9-26.6-1.7c1.1,0.6-5.5-7.2-4.4-12.7c0.6,2.2-11.1-1.7-11.1-1.7
		S132.4,206.1,132.4,200z"/>
	<path fill="#D2964F" d="M266.5,193.9c0,0-10.5,3.9-11.1-3.3c-0.6,1.1-18.3-8.9-10.5-24.4c1.7-0.6,17.7-11.1,23.3,4.4
		c-0.6,1.7,1.7,10.5,1.7,10.5L266.5,193.9z"/>
	<path fill="#D2964F" d="M276.6,164.2l13.8-16.1c0,0,6.6,13.8,1.7,18.8C292.1,167.6,276.6,164.2,276.6,164.2z"/>
	<circle fill="#12192A" cx="295.8" cy="185.6" r="6.6"/>
	<path fill="#FFDDD8" d="M339,200c0,0-5.5-4.4,2.8-10C342.3,191.1,349.5,193.4,339,200z"/>
	<circle fill="#B8CEDD" cx="295.3" cy="184.5" r="2.8"/>
	<path fill="none" stroke="#957B60" stroke-width="1.44" stroke-miterlimit="10" d="M227.7,247.6l-28.8-22.2c0,0-8.3-26,5.5-38.2
		c-1.1,1.1,1.7-17.7,10-17.7"/>
	<path fill="#FFDDD8" d="M148.5,226c0,0,10.5,5.5,16.1,5c-2.2,0,5,10.5,14.4,10.5c2.2,0.6,14.4-0.6,18.3,3.9c0-0.6-4.8-0.2-4.8-0.2
		l1.3,3.9l-3.5-0.6l-5.2-0.4l1.7,2.6l-17.5-3.3l-1.5,6.3l-3.7-5.5l-9-7.4l-4.4-6.1C150.5,234.7,145,230.5,148.5,226z"/>
</g>
</svg>
