<?xml version="1.0" encoding="utf-8"?>
<!-- Generator: Adobe Illustrator 18.0.0, SVG Export Plug-In . SVG Version: 6.00 Build 0)  -->
<!DOCTYPE svg PUBLIC "-//W3C//DTD SVG 1.1//EN" "http://www.w3.org/Graphics/SVG/1.1/DTD/svg11.dtd">
<svg version="1.1" id="Layer_1" xmlns="http://www.w3.org/2000/svg" xmlns:xlink="http://www.w3.org/1999/xlink" x="0px" y="0px"
	 viewBox="0 0 72 72" enable-background="new 0 0 72 72" xml:space="preserve">
<g>
	<g>
		<g enable-background="new    ">
			<g enable-background="new    ">
				<defs>
					<path id="SVGID_1_" enable-background="new    " d="M52.4,38.3l-5.5,9c0.4-0.6,0.1-1.3-1-1.9l5-9.9
						C52.5,36.4,52.9,37.4,52.4,38.3z"/>
				</defs>
				<clipPath id="SVGID_2_">
					<use xlink:href="#SVGID_1_"  overflow="visible"/>
				</clipPath>
				<g clip-path="url(#SVGID_2_)" enable-background="new    ">
					<path fill="#804C10" d="M52.4,38.3l-5.5,9c0.3-0.5,0.1-1.1-0.6-1.7l5.2-9.8C52.6,36.6,52.9,37.5,52.4,38.3"/>
					<path fill="#854F10" d="M51.4,35.8l-5.2,9.8c-0.1-0.1-0.2-0.1-0.3-0.2l5-9.9C51.1,35.6,51.3,35.7,51.4,35.8"/>
				</g>
			</g>
			<g enable-background="new    ">
				<defs>
					<path id="SVGID_3_" enable-background="new    " d="M25,47.3c-1.8-3-3.6-6-5.5-9c-1.2-1.9,2.3-4,8.9-4.9
						c8.2-1.1,18.1-0.2,22.3,2.1l-5,10c-2.8-1.5-9.4-2.1-14.9-1.4C26.5,44.6,24.2,46,25,47.3z"/>
				</defs>
				<clipPath id="SVGID_4_">
					<use xlink:href="#SVGID_3_"  overflow="visible"/>
				</clipPath>
				<g clip-path="url(#SVGID_4_)" enable-background="new    ">
					<path fill="#854F10" d="M50.8,35.4l-5,10c0,0-0.1-0.1-0.1-0.1l4.9-10C50.7,35.3,50.7,35.4,50.8,35.4"/>
					<path fill="#8A5211" d="M50.6,35.3l-4.9,10c-0.2-0.1-0.3-0.2-0.5-0.2l4.6-10.1C50.1,35.1,50.4,35.2,50.6,35.3"/>
					<path fill="#8F5511" d="M49.8,34.9l-4.6,10.1c-0.2-0.1-0.3-0.1-0.5-0.2l4.4-10.2C49.3,34.8,49.6,34.8,49.8,34.9"/>
					<path fill="#945812" d="M49.1,34.7l-4.4,10.2c-0.2-0.1-0.3-0.1-0.5-0.2l4.2-10.3C48.6,34.5,48.9,34.6,49.1,34.7"/>
					<path fill="#995B13" d="M48.4,34.4l-4.2,10.3c-0.2,0-0.3-0.1-0.5-0.1l3.9-10.4C47.9,34.3,48.1,34.4,48.4,34.4"/>
					<path fill="#9E5E13" d="M47.7,34.2l-3.9,10.4c-0.1,0-0.3-0.1-0.5-0.1L47,34C47.2,34.1,47.4,34.2,47.7,34.2"/>
					<path fill="#A36114" d="M47,34l-3.7,10.4c-0.2,0-0.3-0.1-0.5-0.1l3.5-10.5C46.5,33.9,46.8,34,47,34"/>
					<path fill="#A86414" d="M46.3,33.9l-3.5,10.5c-0.2,0-0.3-0.1-0.5-0.1l3.2-10.5C45.8,33.8,46.1,33.8,46.3,33.9"/>
					<path fill="#AD6715" d="M45.6,33.7l-3.2,10.5c-0.2,0-0.3-0.1-0.5-0.1l3-10.6C45.1,33.6,45.4,33.7,45.6,33.7"/>
					<path fill="#B26A16" d="M44.9,33.6l-3,10.6c-0.2,0-0.3-0.1-0.5-0.1l2.8-10.6C44.4,33.5,44.7,33.6,44.9,33.6"/>
					<path fill="#B76D16" d="M44.2,33.5l-2.8,10.6c-0.2,0-0.3,0-0.5-0.1l2.5-10.6C43.7,33.4,43.9,33.4,44.2,33.5"/>
					<path fill="#BC7017" d="M43.5,33.4L41,44c-0.1,0-0.3,0-0.5-0.1l2.3-10.7C43,33.3,43.3,33.3,43.5,33.4"/>
					<path fill="#C17317" d="M42.8,33.3L40.5,44c-0.1,0-0.3,0-0.4-0.1l2.1-10.7C42.4,33.2,42.6,33.3,42.8,33.3"/>
					<path fill="#C67618" d="M42.1,33.2l-2.1,10.7c-0.1,0-0.3,0-0.4,0l1.9-10.7C41.7,33.2,41.9,33.2,42.1,33.2"/>
					<path fill="#CB7919" d="M41.5,33.1l-1.9,10.7c-0.1,0-0.3,0-0.4,0L41,33.1C41.2,33.1,41.3,33.1,41.5,33.1"/>
					<path fill="#CF7B19" d="M41,33.1l-1.7,10.7c-0.1,0-0.2,0-0.3,0L40.5,33C40.6,33.1,40.8,33.1,41,33.1"/>
					<path fill="#D47E1A" d="M40.5,33L39,43.8c-0.1,0-0.2,0-0.3,0L40,33C40.1,33,40.3,33,40.5,33"/>
					<path fill="#D9811A" d="M40,33l-1.3,10.8c-0.1,0-0.2,0-0.3,0L39.6,33C39.7,33,39.8,33,40,33"/>
					<path fill="#DE841B" d="M39.6,33l-1.2,10.8c-0.1,0-0.2,0-0.2,0L39.2,33C39.3,33,39.5,33,39.6,33"/>
					<path fill="#E3871C" d="M39.2,33l-1.1,10.8c-0.1,0-0.2,0-0.3,0l1-10.8C39,32.9,39.1,33,39.2,33"/>
					<path fill="#E88A1C" d="M38.8,32.9l-1,10.8c-0.1,0-0.1,0-0.2,0l0.9-10.8C38.6,32.9,38.7,32.9,38.8,32.9"/>
					<path fill="#ED8D1D" d="M38.5,32.9l-0.9,10.8c-0.1,0-0.1,0-0.2,0l0.8-10.8C38.3,32.9,38.4,32.9,38.5,32.9"/>
					<path fill="#F2901D" d="M38.2,32.9l-0.8,10.8c-0.1,0-0.1,0-0.2,0L38,32.9C38.1,32.9,38.1,32.9,38.2,32.9"/>
					<path fill="#F7931E" d="M38,32.9l-0.7,10.8c-0.1,0-0.1,0-0.2,0l0.6-10.8C37.8,32.9,37.9,32.9,38,32.9"/>
					<path fill="#F8A039" d="M37.7,32.9l-0.6,10.8c-0.1,0-0.1,0-0.2,0l0.5-10.8C37.5,32.9,37.6,32.9,37.7,32.9"/>
					<path fill="#F8A544" d="M37.4,32.9l-0.5,10.8c-0.1,0-0.1,0-0.2,0l0.4-10.8C37.2,32.9,37.3,32.9,37.4,32.9"/>
					<path fill="#F9A94D" d="M37.2,32.9l-0.4,10.8c-0.1,0-0.1,0-0.2,0l0.3-10.8C37,32.9,37.1,32.9,37.2,32.9"/>
					<path fill="#F9AD54" d="M36.9,32.9l-0.3,10.8c-0.1,0-0.1,0-0.2,0l0.3-10.8C36.8,32.9,36.9,32.9,36.9,32.9"/>
					<path fill="#F9B05A" d="M36.7,32.9l-0.3,10.8c-0.1,0-0.1,0-0.2,0l0.2-10.8C36.6,32.9,36.6,32.9,36.7,32.9"/>
					<path fill="#F9B360" d="M36.5,32.9l-0.2,10.8c-0.1,0-0.1,0-0.2,0l0.1-10.8C36.3,32.9,36.4,32.9,36.5,32.9"/>
					<path fill="#FAB565" d="M36.3,33l-0.1,11c0,0-0.1,0-0.1,0l0-10.9C36.1,33.1,36.2,33,36.3,33"/>
					<path fill="#FAB86A" d="M36,33l0,11c0,0-0.1,0-0.1,0l0-11C35.9,33,36,33,36,33"/>
					<path fill="#FABA6F" d="M35.8,33l0,11c0,0-0.1,0-0.1,0l-0.1-11c0.1,0,0.4,0,0.4,0"/>
					<path fill="#FABC73" d="M35.6,33l0.1,11c0,0-0.1,0-0.1,0l-0.2-10.9C35.5,33.1,35.5,33,35.6,33"/>
					<path fill="#FABE78" d="M35.4,32.9l0.2,10.8c0,0-0.1,0-0.1,0l-0.2-10.8C35.3,32.9,35.3,32.9,35.4,32.9"/>
					<path fill="#FAC07C" d="M35.2,32.9l0.2,10.8c0,0-0.1,0-0.1,0L35,32.9C35,32.9,35.1,32.9,35.2,32.9"/>
					<path fill="#FAC27F" d="M35,32.9l0.3,10.8c-0.1,0-0.1,0-0.2,0l-0.4-10.8C34.8,32.9,34.9,32.9,35,32.9"/>
					<path fill="#FBC383" d="M34.7,32.9l0.4,10.8c-0.1,0-0.1,0-0.2,0l-0.5-10.8C34.6,32.9,34.7,32.9,34.7,32.9"/>
					<path fill="#FBC587" d="M34.5,32.9L35,43.7c-0.1,0-0.1,0-0.2,0l-0.6-10.8C34.3,32.9,34.4,32.9,34.5,32.9"/>
					<path fill="#FBC78A" d="M34.3,32.9l0.6,10.8c-0.1,0-0.1,0-0.2,0L34,32.9C34.1,32.9,34.2,32.9,34.3,32.9"/>
					<path fill="#FBC88D" d="M34,32.9l0.6,10.8c-0.1,0-0.1,0-0.2,0l-0.7-10.8C33.8,32.9,33.9,32.9,34,32.9"/>
					<path fill="#FBCA91" d="M33.8,32.9l0.7,10.8c-0.1,0-0.1,0-0.2,0l-0.8-10.8C33.6,32.9,33.7,32.9,33.8,32.9"/>
					<path fill="#FBCB94" d="M33.5,32.9l0.8,10.8c-0.1,0-0.2,0-0.3,0l-1-10.8C33.2,32.9,33.3,32.9,33.5,32.9"/>
					<path fill="#FBCD97" d="M33,32.9l1,10.8c-0.1,0-0.2,0-0.3,0L32.6,33C32.7,32.9,32.9,32.9,33,32.9"/>
					<path fill="#FBCE9A" d="M32.6,33l1.1,10.8c-0.4,0-0.8,0.1-1.2,0.1l-1.7-10.7C31.4,33,32,33,32.6,33"/>
					<path fill="#FBCD97" d="M30.8,33.1l1.7,10.7c-0.1,0-0.2,0-0.3,0l-1.8-10.7C30.6,33.1,30.7,33.1,30.8,33.1"/>
					<path fill="#FBCB94" d="M30.4,33.1l1.8,10.7c-0.1,0-0.2,0-0.3,0l-2-10.7C30.1,33.1,30.3,33.1,30.4,33.1"/>
					<path fill="#FBCA91" d="M30,33.2l2,10.7c-0.1,0-0.2,0-0.2,0l-2.1-10.7C29.8,33.2,29.9,33.2,30,33.2"/>
					<path fill="#FBC88D" d="M29.7,33.2l2.1,10.7c-0.1,0-0.1,0-0.2,0l-2.2-10.7C29.5,33.2,29.6,33.2,29.7,33.2"/>
					<path fill="#FBC78A" d="M29.4,33.2l2.2,10.7c-0.1,0-0.1,0-0.2,0l-2.3-10.7C29.2,33.2,29.3,33.2,29.4,33.2"/>
					<path fill="#FBC587" d="M29.1,33.3l2.3,10.7c-0.1,0-0.1,0-0.2,0l-2.3-10.7C29,33.3,29.1,33.3,29.1,33.3"/>
					<path fill="#FBC383" d="M28.9,33.3L31.2,44c-0.1,0-0.1,0-0.2,0l-2.4-10.7C28.7,33.3,28.8,33.3,28.9,33.3"/>
					<path fill="#FAC27F" d="M28.6,33.3L31.1,44c0,0-0.1,0-0.1,0c0,0-0.1,0-0.1,0l-2.5-10.7c0,0,0.1,0,0.1,0
						C28.6,33.3,28.6,33.3,28.6,33.3"/>
					<path fill="#FAC07C" d="M28.4,33.4L30.9,44c-0.1,0-0.1,0-0.2,0l-2.6-10.6C28.2,33.4,28.3,33.4,28.4,33.4"/>
					<path fill="#FABE78" d="M28.1,33.4L30.7,44c-0.1,0-0.1,0-0.2,0l-2.7-10.6C28,33.4,28,33.4,28.1,33.4"/>
					<path fill="#FABC73" d="M27.9,33.4l2.7,10.6c-0.1,0-0.1,0-0.2,0l-2.8-10.6C27.7,33.5,27.8,33.4,27.9,33.4"/>
					<path fill="#FABA6F" d="M27.6,33.5l2.8,10.6c-0.1,0-0.1,0-0.2,0l-2.8-10.6C27.5,33.5,27.6,33.5,27.6,33.5"/>
					<path fill="#FAB86A" d="M27.4,33.5l2.8,10.6c-0.1,0-0.1,0-0.2,0l-2.9-10.6C27.2,33.5,27.3,33.5,27.4,33.5"/>
					<path fill="#FAB565" d="M27.1,33.6l2.9,10.6c-0.1,0-0.1,0-0.2,0l-3-10.6C26.9,33.6,27,33.6,27.1,33.6"/>
					<path fill="#F9B360" d="M26.9,33.6l3,10.6c-0.1,0-0.1,0-0.2,0l-3.1-10.6C26.7,33.6,26.8,33.6,26.9,33.6"/>
					<path fill="#F9B05A" d="M26.6,33.7l3.1,10.6c-0.1,0-0.1,0-0.2,0l-3.2-10.5C26.4,33.7,26.5,33.7,26.6,33.7"/>
					<path fill="#F9AD54" d="M26.3,33.7l3.2,10.5c-0.1,0-0.2,0-0.2,0l-3.3-10.5C26.1,33.8,26.2,33.7,26.3,33.7"/>
					<path fill="#F9A94D" d="M25.9,33.8l3.3,10.5c-0.1,0-0.2,0-0.3,0.1l-3.5-10.5C25.7,33.8,25.8,33.8,25.9,33.8"/>
					<path fill="#F8A544" d="M25.6,33.9L29,44.3c-0.1,0-0.2,0-0.2,0.1l-3.6-10.5C25.3,33.9,25.4,33.9,25.6,33.9"/>
					<path fill="#F8A039" d="M25.2,33.9l3.6,10.5c-0.1,0-0.2,0.1-0.3,0.1l-3.7-10.4C24.9,34,25,34,25.2,33.9"/>
					<path fill="#F7931E" d="M24.7,34.1l3.7,10.4c-0.1,0-0.2,0.1-0.3,0.1l-3.9-10.4C24.3,34.2,24.5,34.1,24.7,34.1"/>
					<path fill="#F2901D" d="M24.2,34.2l3.9,10.4c-0.1,0-0.3,0.1-0.4,0.1l-4.1-10.3C23.7,34.3,23.9,34.3,24.2,34.2"/>
					<path fill="#ED8D1D" d="M23.5,34.4l4.1,10.3c-0.2,0-0.3,0.1-0.4,0.1l-4.4-10.2C23.1,34.5,23.3,34.5,23.5,34.4"/>
					<path fill="#E88A1C" d="M22.9,34.6l4.4,10.2c-0.1,0.1-0.3,0.1-0.4,0.2l-4.6-10.2C22.4,34.8,22.6,34.7,22.9,34.6"/>
					<path fill="#E3871C" d="M22.2,34.9L26.8,45c-0.1,0.1-0.2,0.1-0.4,0.2l-4.7-10.1C21.9,35,22,34.9,22.2,34.9"/>
					<path fill="#DE841B" d="M21.7,35.1l4.7,10.1c-0.1,0.1-0.2,0.1-0.3,0.2l-4.9-10C21.4,35.2,21.5,35.2,21.7,35.1"/>
					<path fill="#D9811A" d="M21.2,35.3l4.9,10c-0.1,0-0.2,0.1-0.3,0.2l-5-9.9C20.9,35.5,21.1,35.4,21.2,35.3"/>
					<path fill="#D47E1A" d="M20.8,35.6l5,9.9c-0.1,0-0.2,0.1-0.2,0.2l-5.1-9.8C20.6,35.7,20.7,35.6,20.8,35.6"/>
					<path fill="#CF7B19" d="M20.5,35.8l5.1,9.8c-0.1,0-0.1,0.1-0.2,0.1L20.2,36C20.3,35.9,20.4,35.9,20.5,35.8"/>
					<path fill="#CB7919" d="M20.2,36l5.2,9.8c-0.1,0-0.1,0.1-0.2,0.1l-5.3-9.7C20,36.2,20.1,36.1,20.2,36"/>
					<path fill="#C67618" d="M19.9,36.2l5.3,9.7c0,0-0.1,0.1-0.1,0.1l-5.4-9.6C19.8,36.4,19.9,36.3,19.9,36.2"/>
					<path fill="#C17317" d="M19.7,36.4l5.4,9.6c0,0-0.1,0.1-0.1,0.1l-5.4-9.5C19.6,36.6,19.7,36.5,19.7,36.4"/>
					<path fill="#BC7017" d="M19.6,36.7l5.4,9.5c0,0-0.1,0.1-0.1,0.1l-5.5-9.5C19.5,36.8,19.5,36.7,19.6,36.7"/>
					<path fill="#B76D16" d="M19.5,36.9l5.5,9.5c0,0.1,0,0.1-0.1,0.2l-5.5-9.4C19.4,37,19.4,37,19.5,36.9"/>
					<path fill="#B26A16" d="M19.4,37.1l5.5,9.4c0,0.1,0,0.1,0,0.2l-5.5-9.3C19.4,37.3,19.4,37.2,19.4,37.1"/>
					<path fill="#AD6715" d="M19.3,37.4l5.5,9.3c0,0.1,0,0.1,0,0.2l-5.5-9.2C19.3,37.5,19.3,37.4,19.3,37.4"/>
					<path fill="#A86414" d="M19.4,37.6l5.5,9.2c0,0.1,0,0.1,0,0.2l-5.5-9.2C19.4,37.8,19.4,37.7,19.4,37.6"/>
					<path fill="#A36114" d="M19.4,37.8l5.5,9.2c0,0.1,0,0.1,0.1,0.2l-5.5-9.1C19.5,38,19.4,37.9,19.4,37.8"/>
					<path fill="#9E5E13" d="M19.5,38.1l5.5,9.1c0,0,0,0.1,0,0.1l-5.5-9C19.5,38.2,19.5,38.1,19.5,38.1"/>
				</g>
			</g>
			<g enable-background="new    ">
				<defs>
					<path id="SVGID_5_" enable-background="new    " d="M19.6,38.2c-1.8-3-3.6-6-5.5-9c-1.6-2.6,3-5.3,11.9-6.5
						c10.9-1.5,24.2-0.3,29.7,2.8l-5,10c-4.1-2.3-14.1-3.2-22.3-2.1C21.8,34.3,18.4,36.3,19.6,38.2z"/>
				</defs>
				<clipPath id="SVGID_6_">
					<use xlink:href="#SVGID_5_"  overflow="visible"/>
				</clipPath>
				<g clip-path="url(#SVGID_6_)" enable-background="new    ">
					<path fill="#854F10" d="M55.8,25.4l-5,10c-0.1,0-0.1-0.1-0.2-0.1l4.9-10C55.6,25.3,55.7,25.4,55.8,25.4"/>
					<path fill="#8A5211" d="M55.5,25.3l-4.9,10c-0.2-0.1-0.5-0.2-0.8-0.4l4.6-10.1C54.8,25,55.2,25.1,55.5,25.3"/>
					<path fill="#8F5511" d="M54.5,24.8l-4.6,10.1c-0.2-0.1-0.5-0.2-0.7-0.3l4.4-10.2C53.8,24.6,54.1,24.7,54.5,24.8"/>
					<path fill="#945812" d="M53.5,24.4l-4.4,10.2c-0.2-0.1-0.5-0.2-0.7-0.2l4.1-10.3C52.9,24.2,53.2,24.3,53.5,24.4"/>
					<path fill="#995B13" d="M52.5,24.1l-4.1,10.3c-0.2-0.1-0.5-0.1-0.7-0.2l3.9-10.4C51.9,23.9,52.2,24,52.5,24.1"/>
					<path fill="#9E5E13" d="M51.6,23.8l-3.9,10.4c-0.2-0.1-0.5-0.1-0.7-0.2l3.7-10.4C51,23.7,51.3,23.8,51.6,23.8"/>
					<path fill="#A36114" d="M50.7,23.6L47,34c-0.2-0.1-0.5-0.1-0.7-0.2l3.5-10.5C50,23.5,50.4,23.5,50.7,23.6"/>
					<path fill="#A86414" d="M49.7,23.4l-3.5,10.5c-0.2-0.1-0.5-0.1-0.7-0.1l3.2-10.5C49.1,23.3,49.4,23.3,49.7,23.4"/>
					<path fill="#AD6715" d="M48.8,23.2l-3.2,10.5c-0.2,0-0.5-0.1-0.7-0.1l3-10.6C48.2,23.1,48.5,23.1,48.8,23.2"/>
					<path fill="#B26A16" d="M47.9,23l-3,10.6c-0.2,0-0.5-0.1-0.7-0.1l2.8-10.6C47.2,22.9,47.6,23,47.9,23"/>
					<path fill="#B76D16" d="M46.9,22.9l-2.8,10.6c-0.2,0-0.5-0.1-0.7-0.1L46,22.7C46.3,22.8,46.6,22.8,46.9,22.9"/>
					<path fill="#BC7017" d="M46,22.7l-2.5,10.7c-0.2,0-0.4-0.1-0.7-0.1l2.3-10.7C45.4,22.6,45.7,22.7,46,22.7"/>
					<path fill="#C17317" d="M45.1,22.6l-2.3,10.7c-0.2,0-0.4-0.1-0.7-0.1l2.1-10.7C44.5,22.5,44.8,22.6,45.1,22.6"/>
					<path fill="#C67618" d="M44.2,22.5l-2.1,10.7c-0.2,0-0.4,0-0.6-0.1l1.9-10.7C43.7,22.4,43.9,22.5,44.2,22.5"/>
					<path fill="#CB7919" d="M43.4,22.4l-1.9,10.7c-0.2,0-0.4,0-0.6-0.1l1.7-10.8C42.9,22.4,43.1,22.4,43.4,22.4"/>
					<path fill="#CF7B19" d="M42.6,22.3L41,33.1c-0.2,0-0.3,0-0.5,0L42,22.3C42.2,22.3,42.4,22.3,42.6,22.3"/>
					<path fill="#D47E1A" d="M42,22.3L40.5,33c-0.2,0-0.3,0-0.5,0l1.3-10.8C41.5,22.2,41.8,22.3,42,22.3"/>
					<path fill="#D9811A" d="M41.3,22.2L40,33c-0.1,0-0.3,0-0.4,0l1.2-10.8C41,22.2,41.1,22.2,41.3,22.2"/>
					<path fill="#DE841B" d="M40.8,22.2L39.6,33c-0.1,0-0.2,0-0.4,0l1.1-10.8C40.5,22.2,40.6,22.2,40.8,22.2"/>
					<path fill="#E3871C" d="M40.3,22.2L39.2,33c-0.1,0-0.3,0-0.4,0l1-10.8C40,22.1,40.1,22.2,40.3,22.2"/>
					<path fill="#E88A1C" d="M39.8,22.1l-1,10.8c-0.1,0-0.2,0-0.3,0l0.9-10.8C39.5,22.1,39.7,22.1,39.8,22.1"/>
					<path fill="#ED8D1D" d="M39.4,22.1l-0.9,10.8c-0.1,0-0.2,0-0.3,0L39,22.1C39.1,22.1,39.3,22.1,39.4,22.1"/>
					<path fill="#F2901D" d="M39,22.1l-0.8,10.8c-0.1,0-0.2,0-0.3,0l0.7-10.8C38.8,22.1,38.9,22.1,39,22.1"/>
					<path fill="#F7931E" d="M38.6,22.1L38,32.9c-0.1,0-0.2,0-0.3,0l0.6-10.8C38.4,22.1,38.5,22.1,38.6,22.1"/>
					<path fill="#F8A039" d="M38.3,22.1l-0.6,10.8c-0.1,0-0.2,0-0.3,0l0.5-10.8C38,22.1,38.1,22.1,38.3,22.1"/>
					<path fill="#F8A544" d="M37.9,22.1l-0.5,10.8c-0.1,0-0.2,0-0.2,0l0.4-10.8C37.7,22.1,37.8,22.1,37.9,22.1"/>
					<path fill="#F9A94D" d="M37.6,22.1l-0.4,10.8c-0.1,0-0.2,0-0.2,0L37.3,22C37.4,22.1,37.5,22.1,37.6,22.1"/>
					<path fill="#F9AD54" d="M37.3,22l-0.3,10.8c-0.1,0-0.2,0-0.2,0L37,22C37.1,22,37.2,22,37.3,22"/>
					<path fill="#F9B05A" d="M37,22l-0.3,10.8c-0.1,0-0.2,0-0.2,0L36.7,22C36.8,22,36.9,22,37,22"/>
					<path fill="#F9B360" d="M36.7,22l-0.2,10.8c-0.1,0-0.2,0-0.2,0L36.4,22C36.5,22,36.6,22,36.7,22"/>
					<path fill="#FAB565" d="M36.4,22l-0.1,10.8c-0.1,0-0.1,0-0.2,0l0-10.8C36.2,22,36.3,22,36.4,22"/>
					<path fill="#FAB86A" d="M36.1,22l0,11c-0.1,0-0.1,0-0.2,0l0-11C35.9,22,36,22,36.1,22"/>
					<path fill="#FABA6F" d="M35.8,22l0,11c-0.1,0-0.1,0-0.2,0l-0.1-11c0.1,0,0.5,0,0.5,0"/>
					<path fill="#FABC73" d="M35.5,22l0.1,10.8c-0.1,0-0.1,0-0.2,0L35.2,22C35.3,22,35.4,22,35.5,22"/>
					<path fill="#FABE78" d="M35.2,22l0.2,10.8c-0.1,0-0.1,0-0.2,0L34.9,22C35,22,35.1,22,35.2,22"/>
					<path fill="#FAC07C" d="M34.9,22l0.2,10.8c-0.1,0-0.1,0-0.2,0L34.7,22C34.8,22,34.8,22,34.9,22"/>
					<path fill="#FAC27F" d="M34.7,22L35,32.9c-0.1,0-0.2,0-0.2,0l-0.4-10.8C34.5,22,34.6,22,34.7,22"/>
					<path fill="#FBC383" d="M34.4,22.1l0.4,10.8c-0.1,0-0.2,0-0.2,0L34,22.1C34.1,22.1,34.2,22.1,34.4,22.1"/>
					<path fill="#FBC587" d="M34,22.1l0.5,10.8c-0.1,0-0.2,0-0.2,0l-0.6-10.8C33.8,22.1,33.9,22.1,34,22.1"/>
					<path fill="#FBC78A" d="M33.7,22.1l0.6,10.8c-0.1,0-0.2,0-0.2,0l-0.6-10.8C33.5,22.1,33.6,22.1,33.7,22.1"/>
					<path fill="#FBC88D" d="M33.4,22.1L34,32.9c-0.1,0-0.2,0-0.2,0L33,22.1C33.2,22.1,33.3,22.1,33.4,22.1"/>
					<path fill="#FBCA91" d="M33,22.1l0.7,10.8c-0.1,0-0.2,0-0.3,0l-0.8-10.8C32.8,22.1,32.9,22.1,33,22.1"/>
					<path fill="#FBCB94" d="M32.7,22.1l0.8,10.8c-0.1,0-0.3,0-0.4,0l-1-10.8C32.3,22.1,32.5,22.1,32.7,22.1"/>
					<path fill="#FBCD97" d="M32.1,22.1l1,10.8c-0.1,0-0.3,0-0.4,0l-1.1-10.8C31.7,22.1,31.9,22.1,32.1,22.1"/>
					<path fill="#FBCE9A" d="M31.5,22.2L32.6,33c-0.6,0-1.2,0.1-1.8,0.1l-1.7-10.8C29.9,22.3,30.7,22.2,31.5,22.2"/>
					<path fill="#FBCD97" d="M29.1,22.3l1.7,10.8c-0.1,0-0.3,0-0.4,0l-1.8-10.7C28.7,22.4,28.9,22.3,29.1,22.3"/>
					<path fill="#FBCB94" d="M28.5,22.4l1.8,10.7c-0.1,0-0.3,0-0.4,0l-2-10.7C28.2,22.4,28.4,22.4,28.5,22.4"/>
					<path fill="#FBCA91" d="M28,22.4l2,10.7c-0.1,0-0.2,0-0.3,0l-2.1-10.7C27.7,22.5,27.9,22.5,28,22.4"/>
					<path fill="#FBC88D" d="M27.6,22.5l2.1,10.7c-0.1,0-0.2,0-0.3,0l-2.2-10.7C27.3,22.5,27.4,22.5,27.6,22.5"/>
					<path fill="#FBC78A" d="M27.2,22.5l2.2,10.7c-0.1,0-0.2,0-0.3,0l-2.3-10.7C27,22.6,27.1,22.5,27.2,22.5"/>
					<path fill="#FBC587" d="M26.9,22.6l2.3,10.7c-0.1,0-0.2,0-0.3,0l-2.4-10.7C26.6,22.6,26.8,22.6,26.9,22.6"/>
					<path fill="#FBC383" d="M26.5,22.6l2.4,10.7c-0.1,0-0.2,0-0.3,0l-2.4-10.7C26.3,22.6,26.4,22.6,26.5,22.6"/>
					<path fill="#FAC27F" d="M26.2,22.7l2.4,10.7c0,0-0.1,0-0.1,0c0,0-0.1,0-0.1,0l-2.5-10.7c0.1,0,0.1,0,0.2,0
						C26.1,22.7,26.1,22.7,26.2,22.7"/>
					<path fill="#FAC07C" d="M25.8,22.7l2.5,10.7c-0.1,0-0.2,0-0.2,0l-2.6-10.6C25.6,22.7,25.7,22.7,25.8,22.7"/>
					<path fill="#FABE78" d="M25.5,22.8l2.6,10.6c-0.1,0-0.2,0-0.2,0l-2.7-10.6C25.3,22.8,25.4,22.8,25.5,22.8"/>
					<path fill="#FABC73" d="M25.2,22.8l2.7,10.6c-0.1,0-0.2,0-0.2,0l-2.8-10.6C25,22.8,25.1,22.8,25.2,22.8"/>
					<path fill="#FABA6F" d="M24.9,22.8l2.8,10.6c-0.1,0-0.2,0-0.2,0l-2.8-10.6C24.7,22.9,24.8,22.9,24.9,22.8"/>
					<path fill="#FAB86A" d="M24.6,22.9l2.8,10.6c-0.1,0-0.2,0-0.3,0L24.2,23C24.3,22.9,24.4,22.9,24.6,22.9"/>
					<path fill="#FAB565" d="M24.2,23l2.9,10.6c-0.1,0-0.2,0-0.3,0l-3-10.6C23.9,23,24.1,23,24.2,23"/>
					<path fill="#F9B360" d="M23.8,23l3,10.6c-0.1,0-0.2,0-0.3,0.1l-3.1-10.6C23.6,23.1,23.7,23.1,23.8,23"/>
					<path fill="#F9B05A" d="M23.5,23.1l3.1,10.6c-0.1,0-0.2,0-0.3,0.1l-3.2-10.5C23.2,23.1,23.3,23.1,23.5,23.1"/>
					<path fill="#F9AD54" d="M23.1,23.2l3.2,10.5c-0.1,0-0.2,0-0.3,0.1l-3.3-10.5C22.8,23.2,22.9,23.2,23.1,23.2"/>
					<path fill="#F9A94D" d="M22.6,23.3l3.3,10.5c-0.1,0-0.3,0.1-0.4,0.1l-3.5-10.5C22.3,23.3,22.5,23.3,22.6,23.3"/>
					<path fill="#F8A544" d="M22.1,23.4l3.5,10.5c-0.1,0-0.2,0.1-0.4,0.1l-3.6-10.5C21.8,23.4,22,23.4,22.1,23.4"/>
					<path fill="#F8A039" d="M21.6,23.5l3.6,10.5c-0.2,0-0.3,0.1-0.5,0.1l-3.7-10.4C21.2,23.6,21.4,23.5,21.6,23.5"/>
					<path fill="#F7931E" d="M20.9,23.6l3.7,10.4c-0.2,0-0.4,0.1-0.5,0.1l-3.9-10.4C20.5,23.8,20.7,23.7,20.9,23.6"/>
					<path fill="#F2901D" d="M20.2,23.8l3.9,10.4c-0.2,0.1-0.4,0.1-0.7,0.2l-4.1-10.3C19.7,24,19.9,23.9,20.2,23.8"/>
					<path fill="#ED8D1D" d="M19.4,24.1l4.1,10.3c-0.2,0.1-0.4,0.1-0.7,0.2l-4.4-10.2C18.8,24.3,19.1,24.2,19.4,24.1"/>
					<path fill="#E88A1C" d="M18.5,24.4l4.4,10.2c-0.2,0.1-0.4,0.2-0.6,0.2l-4.6-10.2C17.9,24.6,18.2,24.5,18.5,24.4"/>
					<path fill="#E3871C" d="M17.7,24.7l4.6,10.2c-0.2,0.1-0.4,0.2-0.5,0.2L16.9,25C17.2,24.9,17.4,24.8,17.7,24.7"/>
					<path fill="#DE841B" d="M16.9,25l4.7,10.1c-0.2,0.1-0.3,0.2-0.5,0.2l-4.9-10C16.5,25.2,16.7,25.1,16.9,25"/>
					<path fill="#D9811A" d="M16.3,25.3l4.9,10c-0.1,0.1-0.3,0.2-0.4,0.2l-5-9.9C16,25.5,16.1,25.4,16.3,25.3"/>
					<path fill="#D47E1A" d="M15.8,25.6l5,9.9c-0.1,0.1-0.2,0.1-0.3,0.2l-5.1-9.9C15.5,25.8,15.6,25.7,15.8,25.6"/>
					<path fill="#CF7B19" d="M15.3,25.9l5.1,9.9c-0.1,0.1-0.2,0.1-0.3,0.2l-5.2-9.8C15.1,26.1,15.2,26,15.3,25.9"/>
					<path fill="#CB7919" d="M14.9,26.2l5.2,9.8c-0.1,0.1-0.2,0.1-0.2,0.2l-5.3-9.7C14.7,26.4,14.8,26.3,14.9,26.2"/>
					<path fill="#C67618" d="M14.6,26.5l5.3,9.7c-0.1,0.1-0.1,0.1-0.2,0.2l-5.4-9.6C14.4,26.7,14.5,26.6,14.6,26.5"/>
					<path fill="#C17317" d="M14.4,26.8l5.4,9.6c-0.1,0.1-0.1,0.1-0.2,0.2l-5.4-9.6C14.2,27,14.3,26.9,14.4,26.8"/>
					<path fill="#BC7017" d="M14.1,27.1l5.4,9.6c0,0.1-0.1,0.1-0.1,0.2L14,27.4C14,27.3,14.1,27.2,14.1,27.1"/>
					<path fill="#B76D16" d="M14,27.4l5.5,9.5c0,0.1-0.1,0.2-0.1,0.2l-5.5-9.4C13.9,27.6,13.9,27.5,14,27.4"/>
					<path fill="#B26A16" d="M13.9,27.7l5.5,9.4c0,0.1,0,0.2,0,0.2L13.8,28C13.8,27.9,13.8,27.8,13.9,27.7"/>
					<path fill="#AD6715" d="M13.8,28l5.5,9.3c0,0.1,0,0.2,0,0.2l-5.5-9.3C13.8,28.2,13.8,28.1,13.8,28"/>
					<path fill="#A86414" d="M13.8,28.3l5.5,9.3c0,0.1,0,0.2,0,0.2l-5.5-9.2C13.9,28.6,13.8,28.4,13.8,28.3"/>
					<path fill="#A36114" d="M13.9,28.7l5.5,9.2c0,0.1,0.1,0.2,0.1,0.2L14,29C14,28.9,13.9,28.8,13.9,28.7"/>
					<path fill="#9E5E13" d="M14,29l5.5,9.1c0,0,0,0.1,0.1,0.1l-5.5-9C14.1,29.1,14,29.1,14,29"/>
				</g>
			</g>
			<g>
				<polygon fill="#D8801A" points="45.9,26.8 55.8,25.4 50.8,35.4 45.8,45.4 40.9,36.8 36,28.2 				"/>
			</g>
			<g>
				<polygon fill="#D7801A" points="46,26.9 55.9,25.5 50.9,35.5 45.9,45.4 41,36.8 36,28.2 				"/>
			</g>
			<g enable-background="new    ">
				<defs>
					<path id="SVGID_7_" enable-background="new    " d="M46.9,46.3c-0.2-0.3-0.5-0.6-1-0.8l-5-8.6c0.2,0.1,0.4,0.3,0.5,0.4
						C43.3,40.2,45.1,43.3,46.9,46.3z"/>
				</defs>
				<clipPath id="SVGID_8_">
					<use xlink:href="#SVGID_7_"  overflow="visible"/>
				</clipPath>
				<g clip-path="url(#SVGID_8_)" enable-background="new    ">
					<path fill="#804C10" d="M46.9,46.3l-5.5-9c-0.1-0.1-0.2-0.3-0.5-0.4l5,8.6C46.4,45.7,46.7,46,46.9,46.3"/>
				</g>
			</g>
			<g enable-background="new    ">
				<defs>
					<path id="SVGID_9_" enable-background="new    " d="M30.5,37.2c0.3-0.5,1.3-0.9,3-1.1c2.7-0.4,6-0.1,7.4,0.7l4.9,8.6
						c-2.8-1.5-9.4-2.1-14.9-1.4c-3.3,0.5-5.4,1.3-6,2.2C26.7,43.5,28.9,39.9,30.5,37.2z"/>
				</defs>
				<clipPath id="SVGID_10_">
					<use xlink:href="#SVGID_9_"  overflow="visible"/>
				</clipPath>
				<g clip-path="url(#SVGID_10_)" enable-background="new    ">
					<path fill="#804C10" d="M45.8,45.4l-4.9-8.6c-0.7-0.4-1.8-0.6-3-0.8l1.9,7.8C42.3,44.1,44.5,44.7,45.8,45.4"/>
					<path fill="#854F10" d="M39.8,43.9L37.9,36C37.6,36,37.3,36,37,36l1,7.8C38.6,43.8,39.2,43.8,39.8,43.9"/>
					<path fill="#8A5211" d="M38,43.7L37,36c-0.3,0-0.6,0-0.9,0l0.1,7.7C36.8,43.7,37.4,43.7,38,43.7"/>
					<path fill="#8F5511" d="M36.2,43.7l-0.1-7.7c-0.3,0-0.7,0-1,0l-0.9,7.8C34.9,43.7,35.6,43.7,36.2,43.7"/>
					<path fill="#945812" d="M34.3,43.7l0.9-7.8c-0.6,0-1.1,0.1-1.6,0.1c-0.6,0.1-1.2,0.2-1.6,0.3l-4.1,8.2c0.9-0.3,2-0.5,3.2-0.7
						C32,43.9,33.2,43.8,34.3,43.7"/>
					<path fill="#8F5511" d="M27.8,44.7l4.1-8.2c-0.2,0.1-0.4,0.1-0.6,0.2l-4.7,8.5C26.9,45,27.3,44.8,27.8,44.7"/>
					<path fill="#8A5211" d="M26.6,45.1l4.7-8.5c-0.2,0.1-0.3,0.1-0.4,0.2l-5.1,8.7C26,45.4,26.3,45.2,26.6,45.1"/>
					<path fill="#854F10" d="M25.8,45.5l5.1-8.7c-0.1,0.1-0.2,0.2-0.3,0.2L25.2,46C25.3,45.9,25.5,45.7,25.8,45.5"/>
					<path fill="#804C10" d="M25.2,46l5.4-8.9c0,0-0.1,0.1-0.1,0.1l-5.5,9C25.1,46.2,25.1,46.1,25.2,46"/>
				</g>
			</g>
			<g enable-background="new    ">
				<defs>
					<path id="SVGID_11_" enable-background="new    " d="M41.4,37.2c-0.1-0.1-0.2-0.3-0.5-0.4l-5-8.6c0,0,0,0,0,0
						C37.6,30.9,39.8,34.5,41.4,37.2z"/>
				</defs>
				<clipPath id="SVGID_12_">
					<use xlink:href="#SVGID_11_"  overflow="visible"/>
				</clipPath>
				<g clip-path="url(#SVGID_12_)" enable-background="new    ">
					<path fill="#804C10" d="M41.4,37.2l-5.5-9c0,0,0,0,0,0l5,8.6C41.2,37,41.4,37.1,41.4,37.2"/>
				</g>
			</g>
			<g enable-background="new    ">
				<defs>
					<path id="SVGID_13_" enable-background="new    " d="M36,28.2C36,28.2,36,28.2,36,28.2C36,28.2,36,28.2,36,28.2l4.9,8.6
						c-1.4-0.8-4.7-1.1-7.4-0.7c-1.6,0.2-2.7,0.6-3,1.1C32.2,34.5,34.4,30.9,36,28.2z"/>
				</defs>
				<clipPath id="SVGID_14_">
					<use xlink:href="#SVGID_13_"  overflow="visible"/>
				</clipPath>
				<g clip-path="url(#SVGID_14_)" enable-background="new    ">
					<path fill="#804C10" d="M40.9,36.8L36,28.2c0,0,0,0,0,0l1.9,7.8C39.2,36.2,40.3,36.4,40.9,36.8"/>
					<path fill="#854F10" d="M37.9,36L36,28.2c0,0,0,0,0,0l1,7.8C37.3,36,37.6,36,37.9,36"/>
					<path fill="#8A5211" d="M37,36l-1-7.8c0,0,0,0,0,0l0.1,7.7C36.4,35.9,36.7,36,37,36"/>
					<path fill="#8F5511" d="M36.1,35.9L36,28.2c0,0,0,0,0,0L35.1,36C35.5,35.9,35.8,35.9,36.1,35.9"/>
					<path fill="#945812" d="M35.1,36l0.9-7.8c0,0,0,0,0,0c0,0,0,0,0,0l-4.1,8.2c0.4-0.1,1-0.3,1.6-0.3C34,36,34.6,36,35.1,36"/>
					<path fill="#8F5511" d="M31.9,36.4l4.1-8.2c0,0,0,0,0,0l-4.7,8.5C31.5,36.6,31.7,36.5,31.9,36.4"/>
					<path fill="#8A5211" d="M31.3,36.7l4.7-8.5c0,0,0,0,0,0l-5.1,8.7C31,36.8,31.1,36.7,31.3,36.7"/>
					<path fill="#854F10" d="M30.9,36.9l5.1-8.7c0,0,0,0,0,0l-5.4,8.9C30.7,37,30.8,37,30.9,36.9"/>
					<path fill="#804C10" d="M30.6,37.1l5.4-8.9c0,0,0,0,0,0L30.6,37.1C30.5,37.2,30.6,37.2,30.6,37.1"/>
				</g>
			</g>
			<g enable-background="new    ">
				<defs>
					<path id="SVGID_15_" enable-background="new    " d="M30.5,37.2l5.5-9c0,0,0,0,0,0c0,0,0,0,0,0c0,0,0,0,0,0l5.5,9
						c0.4,0.7-0.8,1.3-3,1.6c-2.7,0.4-6.1,0.1-7.4-0.7C30.5,37.9,30.3,37.5,30.5,37.2z"/>
				</defs>
				<clipPath id="SVGID_16_">
					<use xlink:href="#SVGID_15_"  overflow="visible"/>
				</clipPath>
				<g clip-path="url(#SVGID_16_)" enable-background="new    ">
					<path fill="#804C10" d="M30.5,37.2l5.5-9c0,0,0,0,0,0L30.8,38C30.4,37.8,30.3,37.5,30.5,37.2"/>
					<path fill="#854F10" d="M30.8,38l5.2-9.9c0,0,0,0,0,0s0,0,0,0l-4.9,10c0,0-0.1,0-0.1-0.1C30.9,38.1,30.9,38.1,30.8,38"/>
					<path fill="#8A5211" d="M31.1,38.2l4.9-10c0,0,0,0,0,0l-4.6,10.1C31.3,38.3,31.2,38.3,31.1,38.2"/>
					<path fill="#8F5511" d="M31.4,38.3L36,28.2c0,0,0,0,0,0l-4.4,10.2C31.5,38.4,31.4,38.4,31.4,38.3"/>
					<path fill="#945812" d="M31.6,38.4L36,28.2c0,0,0,0,0,0l-4.2,10.3C31.8,38.5,31.7,38.5,31.6,38.4"/>
					<path fill="#995B13" d="M31.8,38.5L36,28.2c0,0,0,0,0,0l-3.9,10.4C32,38.5,31.9,38.5,31.8,38.5"/>
					<path fill="#9E5E13" d="M32.1,38.6L36,28.2c0,0,0,0,0,0l-3.7,10.4C32.2,38.6,32.2,38.6,32.1,38.6"/>
					<path fill="#A36114" d="M32.3,38.6L36,28.2c0,0,0,0,0,0l-3.5,10.5C32.5,38.7,32.4,38.7,32.3,38.6"/>
					<path fill="#A86414" d="M32.5,38.7L36,28.2c0,0,0,0,0,0l-3.2,10.5C32.7,38.7,32.6,38.7,32.5,38.7"/>
					<path fill="#AD6715" d="M32.8,38.7L36,28.2c0,0,0,0,0,0l-3,10.6C32.9,38.8,32.9,38.8,32.8,38.7"/>
					<path fill="#B26A16" d="M33,38.8l3-10.6c0,0,0,0,0,0l-2.8,10.6C33.2,38.8,33.1,38.8,33,38.8"/>
					<path fill="#B76D16" d="M33.2,38.8L36,28.2c0,0,0,0,0,0l-2.5,10.7C33.4,38.8,33.3,38.8,33.2,38.8"/>
					<path fill="#BC7017" d="M33.5,38.9L36,28.2c0,0,0,0,0,0l-2.3,10.7C33.6,38.9,33.6,38.9,33.5,38.9"/>
					<path fill="#C17317" d="M33.7,38.9L36,28.2c0,0,0,0,0,0l-2.1,10.7C33.9,38.9,33.8,38.9,33.7,38.9"/>
					<path fill="#C67618" d="M33.9,38.9L36,28.2c0,0,0,0,0,0l-1.9,10.7C34.1,38.9,34,38.9,33.9,38.9"/>
					<path fill="#CB7919" d="M34.1,38.9L36,28.2c0,0,0,0,0,0l-1.7,10.8C34.3,38.9,34.2,38.9,34.1,38.9"/>
					<path fill="#CF7B19" d="M34.3,38.9L36,28.2c0,0,0,0,0,0L34.5,39C34.4,39,34.4,39,34.3,38.9"/>
					<path fill="#D47E1A" d="M34.5,39L36,28.2c0,0,0,0,0,0L34.6,39C34.6,39,34.5,39,34.5,39"/>
					<path fill="#D9811A" d="M34.6,39L36,28.2c0,0,0,0,0,0L34.8,39C34.7,39,34.7,39,34.6,39"/>
					<path fill="#DE841B" d="M34.8,39L36,28.2c0,0,0,0,0,0L34.9,39C34.9,39,34.8,39,34.8,39"/>
					<path fill="#E3871C" d="M34.9,39L36,28.2c0,0,0,0,0,0L35,39C35,39,34.9,39,34.9,39"/>
					<path fill="#E88A1C" d="M35,39l1-10.8c0,0,0,0,0,0L35,39C35.1,39,35.1,39,35,39"/>
					<path fill="#ED8D1D" d="M35.1,39L36,28.2c0,0,0,0,0,0L35.1,39C35.2,39,35.2,39,35.1,39"/>
					<path fill="#F2901D" d="M35.2,39L36,28.2c0,0,0,0,0,0L35.2,39C35.3,39,35.3,39,35.2,39"/>
					<path fill="#F7931E" d="M35.3,39L36,28.2c0,0,0,0,0,0L35.3,39C35.4,39,35.4,39,35.3,39"/>
					<path fill="#F8A039" d="M35.4,39L36,28.2c0,0,0,0,0,0L35.4,39C35.5,39,35.4,39,35.4,39"/>
					<path fill="#F8A544" d="M35.5,39L36,28.2c0,0,0,0,0,0L35.5,39C35.6,39,35.5,39,35.5,39"/>
					<path fill="#F9A94D" d="M35.6,39L36,28.2c0,0,0,0,0,0L35.6,39C35.6,39,35.6,39,35.6,39"/>
					<path fill="#F9AD54" d="M35.7,39L36,28.2c0,0,0,0,0,0L35.7,39C35.7,39,35.7,39,35.7,39"/>
					<path fill="#F9B05A" d="M35.7,39L36,28.2c0,0,0,0,0,0L35.7,39c0.1,0,0.3,0,0.3,0"/>
					<path fill="#F9B360" d="M35.8,39L36,28.2c0,0,0,0,0,0L35.8,39c0,0,0.2,0,0.2,0"/>
					<path fill="#FAB565" d="M35.9,39L36,28.2c0,0,0,0,0,0L35.9,39c0,0,0.1,0,0.1,0"/>
					<path fill="#FAB86A" d="M36,39l0-10.8c0,0,0,0,0,0L36,39C36,39,36,39,36,39"/>
					<path fill="#FABA6F" d="M36,39l0-10.8c0,0,0,0,0,0L36,39C36.1,39,36,39,36,39"/>
					<path fill="#FABC73" d="M36.1,39L36,28.2c0,0,0,0,0,0L36.2,39C36.1,39,36,39,36.1,39"/>
					<path fill="#FABE78" d="M36.2,39L36,28.2c0,0,0,0,0,0L36.2,39c0,0-0.2,0-0.2,0"/>
					<path fill="#FAC07C" d="M36.2,39L36,28.2c0,0,0,0,0,0L36.2,39c0,0-0.2,0-0.2,0"/>
					<path fill="#FAC27F" d="M36.3,39L36,28.2c0,0,0,0,0,0L36.3,39C36.4,39,36.3,39,36.3,39"/>
					<path fill="#FBC383" d="M36.4,39L36,28.2c0,0,0,0,0,0L36.4,39C36.4,39,36.4,39,36.4,39"/>
					<path fill="#FBC587" d="M36.5,39L36,28.2c0,0,0,0,0,0L36.5,39C36.5,39,36.5,39,36.5,39"/>
					<path fill="#FBC78A" d="M36.6,39L36,28.2c0,0,0,0,0,0L36.6,39C36.6,39,36.6,39,36.6,39"/>
					<path fill="#FBC88D" d="M36.6,39L36,28.2c0,0,0,0,0,0L36.6,39C36.7,39,36.7,39,36.6,39"/>
					<path fill="#FBCA91" d="M36.7,39L36,28.2c0,0,0,0,0,0L36.8,39C36.8,39,36.8,39,36.7,39"/>
					<path fill="#FBCB94" d="M36.8,39L36,28.2c0,0,0,0,0,0L37,39C36.9,39,36.9,39,36.8,39"/>
					<path fill="#FBCD97" d="M37,39l-1-10.8c0,0,0,0,0,0L37.1,39C37.1,39,37,39,37,39"/>
					<path fill="#FBCE9A" d="M37.1,39L36,28.2c0,0,0,0,0,0L37.7,39C37.5,39,37.3,39,37.1,39"/>
					<path fill="#FBCD97" d="M37.7,39L36,28.2c0,0,0,0,0,0l1.8,10.7C37.8,38.9,37.7,38.9,37.7,39"/>
					<path fill="#FBCB94" d="M37.8,38.9L36,28.2c0,0,0,0,0,0l2,10.7C37.9,38.9,37.9,38.9,37.8,38.9"/>
					<path fill="#FBCA91" d="M38,38.9l-2-10.7c0,0,0,0,0,0L38,38.9C38.1,38.9,38,38.9,38,38.9"/>
					<path fill="#FBC88D" d="M38.1,38.9L36,28.2c0,0,0,0,0,0L38.1,38.9C38.1,38.9,38.1,38.9,38.1,38.9"/>
					<path fill="#FBC78A" d="M38.2,38.9L36,28.2c0,0,0,0,0,0L38.2,38.9C38.2,38.9,38.2,38.9,38.2,38.9"/>
					<path fill="#FBC587" d="M38.3,38.9L36,28.2c0,0,0,0,0,0L38.3,38.9C38.3,38.9,38.3,38.9,38.3,38.9"/>
					<path fill="#FBC383" d="M38.3,38.9L36,28.2c0,0,0,0,0,0s0,0,0,0L38.3,38.9C38.4,38.9,38.4,38.9,38.3,38.9
						C38.4,38.9,38.4,38.9,38.3,38.9"/>
					<path fill="#FAC27F" d="M38.4,38.9L36,28.2c0,0,0,0,0,0L38.4,38.9C38.5,38.9,38.5,38.9,38.4,38.9"/>
					<path fill="#FAC07C" d="M38.5,38.9L36,28.2c0,0,0,0,0,0L38.5,38.9C38.6,38.8,38.5,38.9,38.5,38.9"/>
					<path fill="#FABE78" d="M38.6,38.8L36,28.2c0,0,0,0,0,0L38.6,38.8C38.7,38.8,38.6,38.8,38.6,38.8"/>
					<path fill="#FABC73" d="M38.7,38.8L36,28.2c0,0,0,0,0,0L38.7,38.8C38.7,38.8,38.7,38.8,38.7,38.8"/>
					<path fill="#FABA6F" d="M38.8,38.8L36,28.2c0,0,0,0,0,0L38.8,38.8C38.8,38.8,38.8,38.8,38.8,38.8"/>
					<path fill="#FAB86A" d="M38.8,38.8L36,28.2c0,0,0,0,0,0L38.8,38.8C38.9,38.8,38.9,38.8,38.8,38.8"/>
					<path fill="#FAB565" d="M38.9,38.8L36,28.2c0,0,0,0,0,0L38.9,38.8C39,38.8,39,38.8,38.9,38.8"/>
					<path fill="#F9B360" d="M39,38.8l-3-10.6c0,0,0,0,0,0L39,38.8C39.1,38.8,39.1,38.8,39,38.8"/>
					<path fill="#F9B05A" d="M39.1,38.8L36,28.2c0,0,0,0,0,0L39.1,38.8C39.2,38.7,39.1,38.8,39.1,38.8"/>
					<path fill="#F9AD54" d="M39.2,38.7L36,28.2c0,0,0,0,0,0l3.3,10.5C39.3,38.7,39.2,38.7,39.2,38.7"/>
					<path fill="#F9A94D" d="M39.3,38.7L36,28.2c0,0,0,0,0,0l3.4,10.5C39.4,38.7,39.4,38.7,39.3,38.7"/>
					<path fill="#F8A544" d="M39.4,38.7L36,28.2c0,0,0,0,0,0l3.6,10.5C39.5,38.7,39.5,38.7,39.4,38.7"/>
					<path fill="#F8A039" d="M39.6,38.7L36,28.2c0,0,0,0,0,0l3.7,10.4C39.7,38.6,39.6,38.6,39.6,38.7"/>
					<path fill="#F7931E" d="M39.7,38.6L36,28.2c0,0,0,0,0,0l3.9,10.4C39.9,38.6,39.8,38.6,39.7,38.6"/>
					<path fill="#F2901D" d="M39.9,38.6L36,28.2c0,0,0,0,0,0l4.1,10.3C40.1,38.5,40,38.6,39.9,38.6"/>
					<path fill="#ED8D1D" d="M40.1,38.5L36,28.2c0,0,0,0,0,0l4.4,10.2C40.3,38.5,40.2,38.5,40.1,38.5"/>
					<path fill="#E88A1C" d="M40.4,38.4L36,28.2c0,0,0,0,0,0l4.6,10.2C40.5,38.4,40.4,38.4,40.4,38.4"/>
					<path fill="#E3871C" d="M40.6,38.4L36,28.2c0,0,0,0,0,0l4.7,10.1C40.7,38.3,40.6,38.3,40.6,38.4"/>
					<path fill="#DE841B" d="M40.7,38.3L36,28.2c0,0,0,0,0,0l4.9,10C40.8,38.2,40.8,38.3,40.7,38.3"/>
					<path fill="#D9811A" d="M40.9,38.2l-4.9-10c0,0,0,0,0,0l5,9.9C41,38.2,40.9,38.2,40.9,38.2"/>
					<path fill="#D47E1A" d="M41,38.1l-5-9.9c0,0,0,0,0,0l5.1,9.9C41.1,38.1,41.1,38.1,41,38.1"/>
					<path fill="#CF7B19" d="M41.1,38.1L36,28.2c0,0,0,0,0,0L41.1,38.1C41.2,38,41.2,38,41.1,38.1"/>
					<path fill="#CB7919" d="M41.2,38L36,28.2c0,0,0,0,0,0L41.2,38C41.3,37.9,41.3,38,41.2,38"/>
					<path fill="#C67618" d="M41.3,37.9L36,28.2c0,0,0,0,0,0L41.3,37.9C41.4,37.9,41.3,37.9,41.3,37.9"/>
					<path fill="#C17317" d="M41.4,37.8L36,28.2c0,0,0,0,0,0L41.4,37.8C41.4,37.8,41.4,37.8,41.4,37.8"/>
					<path fill="#BC7017" d="M41.4,37.8L36,28.2c0,0,0,0,0,0L41.4,37.8C41.5,37.7,41.5,37.7,41.4,37.8"/>
					<path fill="#B76D16" d="M41.5,37.7L36,28.2c0,0,0,0,0,0L41.5,37.7C41.5,37.6,41.5,37.7,41.5,37.7"/>
					<path fill="#B26A16" d="M41.5,37.6L36,28.2c0,0,0,0,0,0L41.5,37.6C41.5,37.6,41.5,37.6,41.5,37.6"/>
					<path fill="#AD6715" d="M41.5,37.5L36,28.2c0,0,0,0,0,0L41.5,37.5C41.5,37.5,41.5,37.5,41.5,37.5"/>
					<path fill="#A86414" d="M41.5,37.4L36,28.2c0,0,0,0,0,0L41.5,37.4C41.5,37.4,41.5,37.4,41.5,37.4"/>
					<path fill="#A36114" d="M41.5,37.4L36,28.2c0,0,0,0,0,0L41.5,37.4C41.5,37.3,41.5,37.3,41.5,37.4"/>
					<path fill="#9E5E13" d="M41.5,37.3L36,28.2c0,0,0,0,0,0L41.5,37.3C41.5,37.3,41.5,37.3,41.5,37.3"/>
				</g>
			</g>
			<g enable-background="new    ">
				<defs>
					<path id="SVGID_17_" enable-background="new    " d="M57.9,29.3c-1.8,3-3.7,6-5.5,9c0.6-0.9,0.1-1.9-1.4-2.8l5-10
						C58,26.7,58.6,28,57.9,29.3z"/>
				</defs>
				<clipPath id="SVGID_18_">
					<use xlink:href="#SVGID_17_"  overflow="visible"/>
				</clipPath>
				<g clip-path="url(#SVGID_18_)" enable-background="new    ">
					<path fill="#804C10" d="M57.9,29.3l-5.5,9c0.5-0.8,0.2-1.7-1-2.5l5.2-9.9C58.1,27,58.5,28.2,57.9,29.3"/>
					<path fill="#854F10" d="M56.6,25.9l-5.2,9.9c-0.1-0.1-0.3-0.2-0.5-0.3l5-10C56.2,25.7,56.4,25.8,56.6,25.9"/>
				</g>
			</g>
			<g enable-background="new    ">
				<defs>
					<path id="SVGID_19_" enable-background="new    " d="M25,46.2l5.5-9c-0.2,0.3,0,0.6,0.5,0.9c1.4,0.8,4.7,1.1,7.4,0.7
						c2.3-0.3,3.4-1,3-1.6c1.8,3,3.6,6,5.5,9c0.8,1.3-1.5,2.7-6,3.3c-5.5,0.7-12.1,0.1-14.8-1.4C24.9,47.5,24.7,46.8,25,46.2z"/>
				</defs>
				<clipPath id="SVGID_20_">
					<use xlink:href="#SVGID_19_"  overflow="visible"/>
				</clipPath>
				<g clip-path="url(#SVGID_20_)" enable-background="new    ">
					<path fill="#804C10" d="M25,46.2l5.5-9c-0.2,0.3-0.1,0.6,0.3,0.8l-5.2,9.8C24.9,47.3,24.7,46.8,25,46.2"/>
					<path fill="#854F10" d="M25.7,47.9l5.2-9.8c0.1,0,0.1,0.1,0.2,0.1c0,0,0.1,0,0.1,0.1l-4.9,10c-0.1,0-0.1-0.1-0.2-0.1
						C25.9,48,25.8,48,25.7,47.9"/>
					<path fill="#8A5211" d="M26.2,48.2l4.9-10c0.1,0,0.2,0.1,0.3,0.1l-4.6,10.1C26.5,48.4,26.4,48.3,26.2,48.2"/>
					<path fill="#8F5511" d="M26.7,48.5l4.6-10.1c0.1,0,0.2,0.1,0.2,0.1l-4.4,10.2C27,48.6,26.9,48.5,26.7,48.5"/>
					<path fill="#945812" d="M27.2,48.6l4.4-10.2c0.1,0,0.2,0.1,0.2,0.1l-4.2,10.3C27.5,48.7,27.4,48.7,27.2,48.6"/>
					<path fill="#995B13" d="M27.7,48.8l4.2-10.3c0.1,0,0.2,0,0.2,0.1l-3.9,10.4C28,48.9,27.8,48.8,27.7,48.8"/>
					<path fill="#9E5E13" d="M28.2,48.9l3.9-10.4c0.1,0,0.2,0,0.2,0.1l-3.7,10.4C28.5,49,28.3,49,28.2,48.9"/>
					<path fill="#A36114" d="M28.6,49.1l3.7-10.4c0.1,0,0.2,0,0.2,0.1l-3.5,10.5C28.9,49.1,28.8,49.1,28.6,49.1"/>
					<path fill="#A86414" d="M29.1,49.2l3.5-10.5c0.1,0,0.2,0,0.2,0l-3.2,10.5C29.4,49.2,29.2,49.2,29.1,49.2"/>
					<path fill="#AD6715" d="M29.6,49.3l3.2-10.5c0.1,0,0.2,0,0.2,0l-3,10.6C29.9,49.3,29.7,49.3,29.6,49.3"/>
					<path fill="#B26A16" d="M30,49.4l3-10.6c0.1,0,0.2,0,0.2,0l-2.8,10.6C30.3,49.4,30.2,49.4,30,49.4"/>
					<path fill="#B76D16" d="M30.5,49.4l2.8-10.6c0.1,0,0.2,0,0.2,0L31,49.5C30.8,49.5,30.6,49.5,30.5,49.4"/>
					<path fill="#BC7017" d="M31,49.5l2.5-10.6c0.1,0,0.2,0,0.2,0l-2.3,10.7C31.3,49.5,31.1,49.5,31,49.5"/>
					<path fill="#C17317" d="M31.4,49.6l2.3-10.7c0.1,0,0.1,0,0.2,0l-2.1,10.7C31.7,49.6,31.6,49.6,31.4,49.6"/>
					<path fill="#C67618" d="M31.9,49.6l2.1-10.7c0.1,0,0.1,0,0.2,0l-1.9,10.7C32.1,49.6,32,49.6,31.9,49.6"/>
					<path fill="#CB7919" d="M32.3,49.7l1.9-10.7c0.1,0,0.1,0,0.2,0l-1.7,10.7C32.5,49.7,32.4,49.7,32.3,49.7"/>
					<path fill="#CF7B19" d="M32.6,49.7l1.7-10.7c0.1,0,0.1,0,0.2,0L33,49.7C32.9,49.7,32.7,49.7,32.6,49.7"/>
					<path fill="#D47E1A" d="M33,49.7L34.5,39c0.1,0,0.1,0,0.2,0l-1.4,10.8C33.2,49.7,33.1,49.7,33,49.7"/>
					<path fill="#D9811A" d="M33.3,49.7L34.6,39c0,0,0.1,0,0.1,0l-1.2,10.8C33.5,49.8,33.4,49.8,33.3,49.7"/>
					<path fill="#DE841B" d="M33.5,49.8L34.8,39c0,0,0.1,0,0.1,0l-1.1,10.8C33.7,49.8,33.6,49.8,33.5,49.8"/>
					<path fill="#E3871C" d="M33.8,49.8L34.9,39c0,0,0.1,0,0.1,0l-1,10.8C34,49.8,33.9,49.8,33.8,49.8"/>
					<path fill="#E88A1C" d="M34.1,49.8L35,39c0,0,0.1,0,0.1,0l-0.9,10.8C34.2,49.8,34.1,49.8,34.1,49.8"/>
					<path fill="#ED8D1D" d="M34.3,49.8L35.1,39c0,0,0.1,0,0.1,0l-0.8,10.8C34.4,49.8,34.3,49.8,34.3,49.8"/>
					<path fill="#F2901D" d="M34.5,49.8L35.2,39c0,0,0.1,0,0.1,0l-0.7,10.8C34.6,49.8,34.5,49.8,34.5,49.8"/>
					<path fill="#F7931E" d="M34.6,49.8L35.3,39c0,0,0.1,0,0.1,0l-0.6,10.8C34.8,49.8,34.7,49.8,34.6,49.8"/>
					<path fill="#F8A039" d="M34.8,49.8L35.4,39c0,0,0.1,0,0.1,0L35,49.8C35,49.8,34.9,49.8,34.8,49.8"/>
					<path fill="#F8A544" d="M35,49.8L35.5,39c0,0,0.1,0,0.1,0l-0.4,10.8C35.1,49.8,35.1,49.8,35,49.8"/>
					<path fill="#F9A94D" d="M35.2,49.8L35.6,39c0,0,0.1,0,0.1,0l-0.3,10.8C35.3,49.8,35.2,49.8,35.2,49.8"/>
					<path fill="#F9AD54" d="M35.3,49.8L35.7,39c0,0,0.1,0,0.1,0l-0.3,10.8C35.4,49.8,35.4,49.8,35.3,49.8"/>
					<path fill="#F9B05A" d="M35.5,49.8L35.7,39c0,0,0.1,0,0.1,0l-0.2,10.8C35.6,49.8,35.5,49.8,35.5,49.8"/>
					<path fill="#F9B360" d="M35.6,49.8L35.8,39c0,0,0.1,0,0.1,0l-0.1,10.8C35.7,49.8,35.7,49.8,35.6,49.8"/>
					<path fill="#FAB565" d="M35.8,50l0.1-11c0,0,0,0,0.1,0l0,11c0,0,0.1,0,0.1,0"/>
					<path fill="#FAB86A" d="M35.9,50l0-11c0,0,0,0,0.1,0l0,11C36,50,36,50,35.9,50"/>
					<path fill="#FABA6F" d="M36.1,50l0-11c0,0,0,0,0.1,0l0.1,11C36.2,50,36,50,36.1,50"/>
					<path fill="#FABC73" d="M36.2,50l-0.1-11c0,0,0,0,0.1,0l0.2,11c0,0-0.3,0-0.3,0"/>
					<path fill="#FABE78" d="M36.3,49.8L36.2,39c0,0,0,0,0.1,0l0.2,10.8C36.4,49.8,36.4,49.8,36.3,49.8"/>
					<path fill="#FAC07C" d="M36.5,49.8L36.2,39c0,0,0,0,0.1,0l0.3,10.8C36.6,49.8,36.5,49.8,36.5,49.8"/>
					<path fill="#FAC27F" d="M36.6,49.8L36.3,39c0,0,0.1,0,0.1,0l0.4,10.8C36.7,49.8,36.7,49.8,36.6,49.8"/>
					<path fill="#FBC383" d="M36.8,49.8L36.4,39c0,0,0.1,0,0.1,0L37,49.8C36.9,49.8,36.8,49.8,36.8,49.8"/>
					<path fill="#FBC587" d="M37,49.8L36.5,39c0,0,0.1,0,0.1,0l0.6,10.8C37.1,49.8,37,49.8,37,49.8"/>
					<path fill="#FBC78A" d="M37.1,49.8L36.6,39c0,0,0.1,0,0.1,0l0.6,10.8C37.2,49.8,37.2,49.8,37.1,49.8"/>
					<path fill="#FBC88D" d="M37.3,49.8L36.6,39c0,0,0.1,0,0.1,0l0.7,10.8C37.4,49.8,37.3,49.8,37.3,49.8"/>
					<path fill="#FBCA91" d="M37.4,49.8L36.7,39c0,0,0.1,0,0.1,0l0.8,10.8C37.6,49.8,37.5,49.8,37.4,49.8"/>
					<path fill="#FBCB94" d="M37.7,49.8L36.8,39c0,0,0.1,0,0.1,0l1,10.8C37.8,49.8,37.8,49.8,37.7,49.8"/>
					<path fill="#FBCD97" d="M37.9,49.8L37,39c0,0,0.1,0,0.1,0l1.1,10.8C38.1,49.8,38,49.8,37.9,49.8"/>
					<path fill="#FBCE9A" d="M38.2,49.8L37.1,39c0.2,0,0.4,0,0.6,0l1.7,10.7C39,49.7,38.6,49.8,38.2,49.8"/>
					<path fill="#FBCD97" d="M39.4,49.7L37.7,39c0,0,0.1,0,0.1,0l1.8,10.7C39.6,49.7,39.5,49.7,39.4,49.7"/>
					<path fill="#FBCB94" d="M39.7,49.7l-1.8-10.7c0,0,0.1,0,0.1,0l2,10.7C39.9,49.6,39.8,49.7,39.7,49.7"/>
					<path fill="#FBCA91" d="M40,49.6l-2-10.7c0,0,0.1,0,0.1,0l2.1,10.7C40.1,49.6,40,49.6,40,49.6"/>
					<path fill="#FBC88D" d="M40.2,49.6l-2.1-10.7c0,0,0.1,0,0.1,0l2.2,10.7C40.3,49.6,40.2,49.6,40.2,49.6"/>
					<path fill="#FBC78A" d="M40.3,49.6l-2.2-10.7c0,0,0.1,0,0.1,0l2.3,10.7C40.5,49.6,40.4,49.6,40.3,49.6"/>
					<path fill="#FBC587" d="M40.5,49.6l-2.3-10.7c0,0,0.1,0,0.1,0l2.3,10.7C40.6,49.6,40.6,49.6,40.5,49.6"/>
					<path fill="#FBC383" d="M40.7,49.6l-2.3-10.7c0,0,0.1,0,0.1,0c0,0,0,0,0,0l2.4,10.7c0,0,0,0,0,0C40.8,49.5,40.7,49.5,40.7,49.6
						"/>
					<path fill="#FAC27F" d="M40.9,49.5l-2.4-10.7c0,0,0.1,0,0.1,0L41,49.5C41,49.5,40.9,49.5,40.9,49.5"/>
					<path fill="#FAC07C" d="M41,49.5l-2.5-10.7c0,0,0.1,0,0.1,0l2.6,10.6C41.1,49.5,41.1,49.5,41,49.5"/>
					<path fill="#FABE78" d="M41.2,49.5l-2.6-10.6c0,0,0.1,0,0.1,0l2.7,10.6C41.3,49.5,41.3,49.5,41.2,49.5"/>
					<path fill="#FABC73" d="M41.4,49.5l-2.7-10.6c0,0,0.1,0,0.1,0l2.8,10.6C41.5,49.4,41.4,49.5,41.4,49.5"/>
					<path fill="#FABA6F" d="M41.5,49.4l-2.8-10.6c0,0,0.1,0,0.1,0l2.8,10.6C41.6,49.4,41.6,49.4,41.5,49.4"/>
					<path fill="#FAB86A" d="M41.7,49.4l-2.8-10.6c0,0,0.1,0,0.1,0l2.9,10.6C41.8,49.4,41.7,49.4,41.7,49.4"/>
					<path fill="#FAB565" d="M41.9,49.4l-2.9-10.6c0,0,0.1,0,0.1,0l3,10.6C42,49.4,41.9,49.4,41.9,49.4"/>
					<path fill="#F9B360" d="M42,49.3l-3-10.6c0,0,0.1,0,0.1,0l3.1,10.6C42.2,49.3,42.1,49.3,42,49.3"/>
					<path fill="#F9B05A" d="M42.2,49.3l-3.1-10.6c0,0,0.1,0,0.1,0l3.2,10.5C42.3,49.3,42.3,49.3,42.2,49.3"/>
					<path fill="#F9AD54" d="M42.4,49.3l-3.2-10.5c0,0,0.1,0,0.1,0l3.3,10.5C42.6,49.2,42.5,49.3,42.4,49.3"/>
					<path fill="#F9A94D" d="M42.7,49.2l-3.3-10.5c0,0,0.1,0,0.1,0l3.4,10.5C42.8,49.2,42.7,49.2,42.7,49.2"/>
					<path fill="#F8A544" d="M42.9,49.2l-3.4-10.5c0,0,0.1,0,0.1,0l3.6,10.5C43.1,49.1,43,49.2,42.9,49.2"/>
					<path fill="#F8A039" d="M43.1,49.1l-3.6-10.5c0.1,0,0.1,0,0.2,0L43.5,49C43.4,49.1,43.3,49.1,43.1,49.1"/>
					<path fill="#F7931E" d="M43.5,49l-3.7-10.4c0.1,0,0.1,0,0.2,0l3.9,10.4C43.7,49,43.6,49,43.5,49"/>
					<path fill="#F2901D" d="M43.8,48.9l-3.9-10.4c0.1,0,0.1,0,0.2-0.1l4.1,10.3C44.1,48.9,44,48.9,43.8,48.9"/>
					<path fill="#ED8D1D" d="M44.3,48.8l-4.1-10.3c0.1,0,0.2,0,0.2-0.1l4.4,10.2C44.6,48.7,44.4,48.8,44.3,48.8"/>
					<path fill="#E88A1C" d="M44.7,48.7l-4.4-10.2c0.1,0,0.1-0.1,0.2-0.1l4.6,10.2C45,48.6,44.9,48.6,44.7,48.7"/>
					<path fill="#E3871C" d="M45.1,48.5l-4.6-10.2c0.1,0,0.1-0.1,0.2-0.1l4.7,10.1C45.4,48.4,45.3,48.5,45.1,48.5"/>
					<path fill="#DE841B" d="M45.5,48.4l-4.7-10.1c0.1,0,0.1-0.1,0.2-0.1l4.9,10C45.7,48.2,45.6,48.3,45.5,48.4"/>
					<path fill="#D9811A" d="M45.8,48.2l-4.9-10c0,0,0.1-0.1,0.1-0.1l5,9.9C46,48.1,45.9,48.1,45.8,48.2"/>
					<path fill="#D47E1A" d="M46.1,48l-5-9.9c0,0,0.1,0,0.1-0.1l5.1,9.8C46.2,47.9,46.1,48,46.1,48"/>
					<path fill="#CF7B19" d="M46.3,47.9l-5.1-9.8c0,0,0.1,0,0.1-0.1l5.2,9.8C46.4,47.8,46.4,47.8,46.3,47.9"/>
					<path fill="#CB7919" d="M46.5,47.7L41.2,38c0,0,0.1,0,0.1-0.1l5.3,9.7C46.6,47.6,46.5,47.7,46.5,47.7"/>
					<path fill="#C67618" d="M46.7,47.6l-5.3-9.7c0,0,0,0,0.1-0.1l5.4,9.6C46.7,47.5,46.7,47.5,46.7,47.6"/>
					<path fill="#C17317" d="M46.8,47.4l-5.4-9.6c0,0,0,0,0.1-0.1l5.4,9.5C46.9,47.4,46.8,47.4,46.8,47.4"/>
					<path fill="#BC7017" d="M46.9,47.3l-5.4-9.5c0,0,0,0,0-0.1l5.5,9.5C46.9,47.2,46.9,47.3,46.9,47.3"/>
					<path fill="#B76D16" d="M47,47.2l-5.5-9.5c0,0,0-0.1,0-0.1L47,47C47,47.1,47,47.1,47,47.2"/>
					<path fill="#B26A16" d="M47,47l-5.5-9.4c0,0,0-0.1,0-0.1l5.5,9.3C47,46.9,47,46.9,47,47"/>
					<path fill="#AD6715" d="M47,46.8l-5.5-9.3c0,0,0-0.1,0-0.1l5.5,9.2C47.1,46.7,47.1,46.8,47,46.8"/>
					<path fill="#A86414" d="M47,46.7l-5.5-9.2c0,0,0-0.1,0-0.1l5.5,9.2C47,46.6,47,46.6,47,46.7"/>
					<path fill="#A36114" d="M47,46.5l-5.5-9.2c0,0,0-0.1,0-0.1l5.5,9.1C47,46.4,47,46.5,47,46.5"/>
					<path fill="#9E5E13" d="M47,46.4l-5.5-9.1c0,0,0,0,0,0L47,46.4C46.9,46.3,46.9,46.3,47,46.4"/>
				</g>
			</g>
			<g>
				<path fill="#AF6815" d="M45.9,26.8L36,28.2c0,0,0,0,0,0s0,0,0,0s0,0,0,0c0,0,0,0,0,0L45.9,26.8c2.8,1.6,0.5,3.4-5,4.1
					c-5.5,0.7-12.1,0.1-14.8-1.4s-0.5-3.4,5-4.1S43.1,25.3,45.9,26.8z"/>
			</g>
			<g enable-background="new    ">
				<defs>
					<path id="SVGID_21_" enable-background="new    " d="M19.6,38.2c0.3,0.4,0.8,0.9,1.5,1.3c4.1,2.3,14,3.2,22.2,2.1
						c5-0.7,8.2-2,9.1-3.4l-5.5,9c-0.6,0.9-2.7,1.8-6,2.2c-5.5,0.7-12.1,0.1-14.8-1.4c-0.5-0.3-0.8-0.6-1-0.9
						C23.2,44.2,21.4,41.2,19.6,38.2z"/>
				</defs>
				<clipPath id="SVGID_22_">
					<use xlink:href="#SVGID_21_"  overflow="visible"/>
				</clipPath>
				<g clip-path="url(#SVGID_22_)" enable-background="new    ">
					<path fill="#804C10" d="M19.6,38.2l5.5,9c0.2,0.3,0.5,0.6,1,0.9c1.3,0.7,3.5,1.3,6.1,1.5l-1.9-7.8c-3.8-0.4-7.2-1.2-9.1-2.3
						C20.3,39.1,19.8,38.7,19.6,38.2"/>
					<path fill="#854F10" d="M30.2,41.8l1.9,7.8c0.6,0.1,1.2,0.1,1.8,0.1l-1-7.8C32,42,31.1,41.9,30.2,41.8"/>
					<path fill="#8A5211" d="M32.9,42l1,7.8c0.6,0,1.2,0,1.7,0.1l-0.1-7.7C34.7,42.1,33.8,42.1,32.9,42"/>
					<path fill="#8F5511" d="M35.5,42.1l0.1,7.7c0.7,0,1.3,0,2,0l0.9-7.8C37.5,42.1,36.5,42.1,35.5,42.1"/>
					<path fill="#945812" d="M38.5,42.1l-0.9,7.8c1.1,0,2.2-0.1,3.2-0.3c1.3-0.2,2.4-0.4,3.3-0.7l4.1-8.2c-1.4,0.4-3,0.8-5,1
						C41.8,41.9,40.1,42,38.5,42.1"/>
					<path fill="#8F5511" d="M48.3,40.6l-4.1,8.2c0.5-0.1,0.9-0.3,1.2-0.4l4.7-8.5C49.5,40.2,48.9,40.4,48.3,40.6"/>
					<path fill="#8A5211" d="M50.1,40l-4.7,8.5c0.3-0.1,0.6-0.3,0.8-0.4l5.1-8.7C50.9,39.5,50.5,39.8,50.1,40"/>
					<path fill="#854F10" d="M51.3,39.3L46.2,48c0.2-0.2,0.4-0.3,0.6-0.5l5.4-8.9C51.9,38.8,51.7,39.1,51.3,39.3"/>
					<path fill="#804C10" d="M52.2,38.6l-5.4,8.9c0.1-0.1,0.1-0.1,0.1-0.2l5.5-9C52.3,38.4,52.2,38.5,52.2,38.6"/>
				</g>
			</g>
			<g>
				<path fill="#AF6815" d="M55.8,25.4l-9.9,1.4c-2.8-1.5-9.4-2.1-14.9-1.4s-7.7,2.6-5,4.1s9.3,2.2,14.8,1.4
					c5.5-0.7,7.8-2.6,5.1-4.1l10-1.3c5.3,3.1,0.8,6.7-10.2,8.2c-11,1.5-24.2,0.2-29.6-2.8s-1-6.7,9.9-8.2
					C37,21.2,50.2,22.4,55.8,25.4z"/>
			</g>
			<g enable-background="new    ">
				<defs>
					<path id="SVGID_23_" enable-background="new    " d="M14.1,29.2c0.4,0.6,1,1.2,2,1.7c5.4,3,18.7,4.3,29.6,2.8
						c6.7-0.9,10.9-2.6,12.1-4.5c-1.8,3-3.7,6-5.5,9c-0.9,1.4-4.1,2.7-9.1,3.4c-8.2,1.1-18.2,0.2-22.2-2.1c-0.7-0.4-1.2-0.9-1.5-1.3
						C17.8,35.2,15.9,32.2,14.1,29.2z"/>
				</defs>
				<clipPath id="SVGID_24_">
					<use xlink:href="#SVGID_23_"  overflow="visible"/>
				</clipPath>
				<g clip-path="url(#SVGID_24_)" enable-background="new    ">
					<path fill="#804C10" d="M14.1,29.2l5.5,9c0.3,0.4,0.8,0.9,1.5,1.3c2,1.1,5.3,1.9,9.1,2.3L28.3,34c-5.1-0.5-9.6-1.6-12.2-3.1
						C15.1,30.3,14.5,29.8,14.1,29.2"/>
					<path fill="#854F10" d="M28.3,34l1.9,7.8c0.9,0.1,1.8,0.2,2.7,0.2l-1-7.8C30.7,34.2,29.5,34.1,28.3,34"/>
					<path fill="#8A5211" d="M31.9,34.2l1,7.8c0.9,0,1.7,0.1,2.6,0.1l-0.1-7.7C34.2,34.3,33.1,34.3,31.9,34.2"/>
					<path fill="#8F5511" d="M35.4,34.4l0.1,7.7c1,0,2,0,3,0l0.9-7.8C38,34.3,36.7,34.4,35.4,34.4"/>
					<path fill="#945812" d="M39.3,34.3l-0.9,7.8c1.6-0.1,3.3-0.2,4.8-0.4c1.9-0.3,3.6-0.6,5-1l4.1-8.2c-1.8,0.6-4,1-6.6,1.4
						C43.7,34,41.5,34.2,39.3,34.3"/>
					<path fill="#8F5511" d="M52.4,32.4l-4.1,8.2c0.7-0.2,1.3-0.4,1.8-0.7l4.7-8.5C54.1,31.8,53.3,32.1,52.4,32.4"/>
					<path fill="#8A5211" d="M54.8,31.5L50.1,40c0.5-0.2,0.9-0.4,1.2-0.6l5.1-8.7C56,30.9,55.4,31.2,54.8,31.5"/>
					<path fill="#854F10" d="M56.4,30.6l-5.1,8.7c0.4-0.2,0.7-0.5,0.9-0.7l5.4-8.9C57.3,30,56.9,30.3,56.4,30.6"/>
					<path fill="#804C10" d="M57.6,29.7l-5.4,8.9c0.1-0.1,0.2-0.2,0.2-0.3l5.5-9C57.8,29.4,57.7,29.5,57.6,29.7"/>
				</g>
			</g>
		</g>
	</g>
</g>
</svg>
