<?xml version="1.0" encoding="utf-8"?>
<!-- Generator: Adobe Illustrator 18.0.0, SVG Export Plug-In . SVG Version: 6.00 Build 0)  -->
<!DOCTYPE svg PUBLIC "-//W3C//DTD SVG 1.1//EN" "http://www.w3.org/Graphics/SVG/1.1/DTD/svg11.dtd">
<svg version="1.1" id="Layer_1" xmlns="http://www.w3.org/2000/svg" xmlns:xlink="http://www.w3.org/1999/xlink" x="0px" y="0px"
	 viewBox="0 0 72 72" enable-background="new 0 0 72 72" xml:space="preserve">
<g>
	<polygon fill="#2D1D39" points="8.5,15.3 8.5,46.4 36.1,46.4 36.4,46.3 36.6,46.1 36.6,46.2 37,46.1 37.5,46.4 63.5,46.4 
		63.5,15.3 	"/>
	<polygon fill="#79483D" points="8.5,46.4 8.5,54.3 36.1,46.4 	"/>
	<polygon fill="#79483D" points="55.6,56.7 63.5,56.7 63.5,46.4 37.5,46.4 	"/>
	<polygon fill="#2C2C3F" points="36.4,46.3 36.1,46.4 8.5,54.3 8.5,56.7 24.7,56.7 	"/>
	<polygon fill="#2C2C3F" points="37,46.1 37,46.5 27.7,56.7 55.6,56.7 37.5,46.4 	"/>
	<polygon fill="#2C2C3F" points="37,46.1 36.6,46.2 36.6,46.4 26.1,56.7 26.7,56.7 	"/>
	<polygon fill="#FBFF98" points="36.6,46.2 36.6,46.1 36.4,46.3 24.7,56.7 26.1,56.7 36.6,46.4 	"/>
	<polygon fill="#FBFF98" points="37,46.1 26.7,56.7 27.7,56.7 37,46.5 	"/>
</g>
</svg>
