<?xml version="1.0" encoding="utf-8"?>
<!-- Generator: Adobe Illustrator 18.0.0, SVG Export Plug-In . SVG Version: 6.00 Build 0)  -->
<!DOCTYPE svg PUBLIC "-//W3C//DTD SVG 1.1//EN" "http://www.w3.org/Graphics/SVG/1.1/DTD/svg11.dtd">
<svg version="1.1" id="Layer_1" xmlns="http://www.w3.org/2000/svg" xmlns:xlink="http://www.w3.org/1999/xlink" x="0px" y="0px"
	 viewBox="0 0 400 400" enable-background="new 0 0 400 400" xml:space="preserve">
<image overflow="visible" width="562" height="1000" xlink:href="../../o.jpg"  transform="matrix(0.3185 0 0 0.3185 110.6717 40.8032)">
</image>
<polygon fill="#1C160F" points="109.6,359.4 289.7,359.3 289.7,255.2 109.6,255.2 "/>
<polygon fill="#181512" points="110.5,80.8 194.2,102.3 196.5,219.4 111,219.4 "/>
<polygon fill="#624E3F" points="289.2,85.1 194.2,102.3 196.5,229.4 290.2,229.4 "/>
<polygon fill="#8E6F5F" points="110.5,80.8 110.7,40.8 290.7,40.8 290.7,85.1 194.2,102.3 "/>
<path fill="#9C7562" d="M111.5,282.9l119.9,38.2c0,0,6.2-2.4,19.1-18.6c1.4-1,37.3-48.7,37.3-48.7l2.4-34.4c0,0-32.5-17.2-94.6-11.9
	c0,0-6.2-20.5-14.3-16.7c1-1-1.4-4.8-1.4-4.8l-2.4-18.2l-67.4,7.2l1,105.6"/>
<polyline fill="#231600" points="110.5,174.9 177,167.3 179.3,207.4 110.5,237.5 110.5,177.3 "/>
<path fill="#BF9175" d="M110.1,198.8l19.1-6.2l28.7-4.8l22.9-1c0,0,14.8,15.3,14.8,18.6c0,1-84.6,33.9-84.6,33.9L110.1,198.8z"/>
<polygon fill="#807477" points="110.5,281.5 233.3,322.1 234.8,297.3 109.6,260 "/>
<polyline fill="#B2A1A1" points="233.3,322.1 289.7,253.3 288.3,237.1 233.8,294.9 233.3,320.2 "/>
</svg>
