<?xml version="1.0" encoding="utf-8"?>
<!-- Generator: Adobe Illustrator 18.0.0, SVG Export Plug-In . SVG Version: 6.00 Build 0)  -->
<!DOCTYPE svg PUBLIC "-//W3C//DTD SVG 1.1//EN" "http://www.w3.org/Graphics/SVG/1.1/DTD/svg11.dtd">
<svg version="1.1" id="Layer_1" xmlns="http://www.w3.org/2000/svg" xmlns:xlink="http://www.w3.org/1999/xlink" x="0px" y="0px"
	 viewBox="0 0 400 400" enable-background="new 0 0 400 400" xml:space="preserve">
<g>
	<path fill="#2D2526" d="M105.5,98.5L163,70.6l0.8-10.7l20.5-16.4H209l16.4,8.2l41.9-8.2l25.5,7.4c0,0,32,10.7,32,32
		c2.5,0.8,16.4,14,15.6,24.6s-16.4-6.6-16.4-6.6v11.5c0,0,17.3,44.4,13.1,57.5l2.5,12.3l4.1,13.1l9.9,32.9V239l-0.8,8.2l-13.1-1.6
		l-10.7-9.9l4.1-11.5c0,0-0.8-22.2-8.2-34.5c0.8,1.6-30.4-29.6-30.4-29.6s-10.7,32-10.7,39.4s9,27.9,9,27.9l8.2,40.3l-2.5,13.1
		l-12.3,10.7v11.5l17.3,38.6l3.3,4.9l-7.4,8.2l-6.6,1.6l-15.6-0.8L264.1,345v-22.2c0,0,0-12.3,0-14.8c0-2.5,0-8.2,0-8.2l1.6-30.4
		l-9-4.9l-43.5,18.1c0,0-37,4.1-42.7-1.6s0.8,18.1,0.8,18.1l1.6,9l-7.4,18.9l-13.1,20.5l-23.8-1.6l-14.8,1.6l0.8-8.2l9-9l15.6-13.1
		l13.1-9l-4.1-26.3c0,0-14-28.8-10.7-36.1c-1.6,2.5-30.4-34.5-16.4-50.1c0.8,1.6-27.1-41.1-33.7-37.8s-11.5,24.6-17.3,23.8
		c-5.8-0.8-2.5-12.3-2.5-12.3l-21.4-35.3c0,0,33.7-41.1,48.5-42.7C96.5,92.8,108,83.7,105.5,98.5z"/>
	<path fill="#FFFFFF" d="M155.2,203.5c0,0,2.5,28.8,48.5,7.4c-0.8,1.6,27.9-12.3,20.5-39.4c1.6,0.8-25.5-31.2-47.7-18.9
		s-24.6,41.1-22.2,46.8"/>
	<circle fill="#FFFFFF" cx="130.2" cy="161" r="10.7"/>
	<circle fill="#FFFFFF" cx="205.8" cy="124.8" r="11.5"/>
	<path fill="none" stroke="#FFFFFF" stroke-width="1.44" stroke-miterlimit="10" d="M150.7,161c0,0,4.9-19.7-11.5-19.7"/>
	<path fill="none" stroke="#FFFFFF" stroke-width="1.44" stroke-miterlimit="10" d="M187.1,136.4c0,0-14.5-14.3-0.4-22.8"/>
	<path fill="none" stroke="#FFFFFF" stroke-width="1.44" stroke-miterlimit="10" d="M295.3,324.5l-5.8-13.1v-20.5l10.7-19.7
		c0,0,0-34.5-6.6-40.3c-6.6-5.8-10.7-35.3-10.7-35.3"/>
	<path fill="none" stroke="#FFFFFF" stroke-width="1.44" stroke-miterlimit="10" d="M94.8,105.1c0,0-9,16.4-3.3,30.4
		c-0.8-1.6,4.1,18.9-9.9,27.9"/>
	<path fill="none" stroke="#FFFFFF" stroke-width="1.44" stroke-miterlimit="10" d="M182.7,64c0,0,2.5-23.8,36.1-11.5
		c0,0,14.8,4.9,27.9-2.5"/>
	<path fill="none" stroke="#FFFFFF" stroke-width="1.44" stroke-miterlimit="10" d="M299.4,59.1c0,0,19.7,8.2,29.6,66.5
		c-0.8,0,14.8,20.5,4.1,41.9"/>
	<path fill="none" stroke="#FFFFFF" stroke-width="1.44" stroke-miterlimit="10" d="M115.4,345c0,0-9-12.3,25.5-26.3
		c0.8,0.8,11.5-11.5,11.5-11.5s-13.1-50.9-15.6-58.3c-2.5-7.4-29.6-38.6-18.9-53.4"/>
	<path fill="none" stroke="#FFFFFF" stroke-width="1.44" stroke-miterlimit="10" d="M224.6,100.2c0,0,15.6,20.5,14,36.1
		c-1.6,15.6,7.4,25.5,0,36.1"/>
	<path d="M196.7,190.6c0,0-27.1,14.8-27.1-6.6c1.6,0-5.8-23.8,9-29.6c0.8,0,27.9,4.9,27.9,18.9C206.6,172.5,209.9,187.3,196.7,190.6
		z"/>
	<circle cx="129.3" cy="160.2" r="7.4"/>
	<circle cx="202.5" cy="124" r="7.4"/>
	<path fill="none" stroke="#000000" stroke-width="1.44" stroke-miterlimit="10" d="M168,208.6c0,0,17.3,10.7,50.1-16.4"/>
	<circle fill="#FFFFFF" cx="182.7" cy="181.5" r="5.8"/>
	<circle fill="#FFFFFF" cx="199.2" cy="175.8" r="5.8"/>
</g>
</svg>
