<?xml version="1.0" encoding="utf-8"?>
<!-- Generator: Adobe Illustrator 18.0.0, SVG Export Plug-In . SVG Version: 6.00 Build 0)  -->
<!DOCTYPE svg PUBLIC "-//W3C//DTD SVG 1.1//EN" "http://www.w3.org/Graphics/SVG/1.1/DTD/svg11.dtd">
<svg version="1.1" id="Layer_1" xmlns="http://www.w3.org/2000/svg" xmlns:xlink="http://www.w3.org/1999/xlink" x="0px" y="0px"
	 viewBox="0 0 400 400" enable-background="new 0 0 400 400" xml:space="preserve">
<g>
	<path fill="#231E1C" d="M130.9,246.3l-20.1-5.7l-1.3-5.7l-1.3-6.3c0,0,4.4-30.8-0.6-45.3c0,1.9-15.7-22-5-48.4
		c-0.6,1.3,3.8-11.3,3.8-11.3s-8.8-34,5-49.1c-0.6-0.6,22-39,54.1-33.3c-0.6,0,42.2,9.4,64.8,59.8c0.6,0.6,14.5,24.5,14.5,24.5
		s14.5-6.9,16.4-4.4c-1.3-0.6,12.6-13.8,22,8.8c0,2.5,9.4,13.2,1.9,17.6c0,1.9,6.3,8.8,1.9,18.2c0.6,1.3,9.4,32.1,9.4,32.1
		s11.3,16.4-1.3,44.7c0,0.6-27.1,47.8-27.1,47.8s1.3,16.4,10.1,16.4c0,0,15.1-2.5,13.2,11.3c1.3,0.6,5.7,0.6,2.5,7.6
		c0.6,1.3-13.2,6.3-13.2,6.3h-11.3l-6.3-0.6l-6.9-3.8l-1.9-5l-3.1-5c0,0-19.5-1.3-18.9-27.1c-0.6,0.6-29.6,1.3-32.1-6.9
		c1.3,6.9,5,23.9,5,23.9l1.3,18.9l-1.3,13.8l-5.7,12c0,0-10.7,13.2-23.3,4.4c1.9,3.1-6.9-4.4-6.9-4.4l1.3-8.8c0,0,17-27.1,15.7-32.7
		c0.6,1.9-7.6-20.1-12-22.7c1.9,0-8.8-15.1-6.3-22c-0.6,0-6.9-15.1-6.3-24.5c0,1.3-34.6-59.1-30.8-76.1c-1.3,1.9-8.2,14.5-8.2,14.5
		s1.3,34.6,8.8,40.3C131.6,220.5,147.3,238.1,130.9,246.3z"/>
	<path fill="#FFFFFF" d="M254.3,245c0,0-29.6-1.9-32.7-16.4c1.3,0.6,10.7-0.6,10.7-0.6s-0.6-18.2,22-21.4c-1.3,0.6,17-2.5,22,13.8
		C276.9,221.7,283.8,237.5,254.3,245z"/>
	<circle fill="#FFFFFF" cx="273.1" cy="185.9" r="7.6"/>
	<circle fill="#FFFFFF" cx="218.4" cy="198.5" r="7.6"/>
	<path fill="none" stroke="#FFFFFF" stroke-width="1.44" stroke-miterlimit="10" d="M173.1,194.7c0,0-25.2-33.3-12-41.5
		c-1.3,0.6,24.5-21.4,42.8-15.1c-0.6-0.6-14.5,3.8-14.5,12c0-1.3,1.9,8.2-0.6,13.8c0.6,0.6,7.6,30.8-13.8,30.8"/>
	<path fill="none" stroke="#FFFFFF" stroke-width="1.44" stroke-miterlimit="10" d="M229.7,138.1c0,0,27.7-24.5,33.3-15.7
		c1.3,1.3,10.1-18.2,18.2,6.3c0.6,1.3,9.4,10.1,3.1,15.7c0.6,0,5,12,1.3,18.9c0.6,0.6-2.5,10.1-0.6,17c0,2.5,3.8,20.8-3.8,27.1"/>
	<path fill="none" stroke="#FFFFFF" stroke-width="1.44" stroke-miterlimit="10" d="M261.2,194.7c0,0-12-8.2-3.1-14.5"/>
	<path fill="none" stroke="#FFFFFF" stroke-width="1.44" stroke-miterlimit="10" d="M231.5,204.1c0,0,12-8.2,3.1-14.5"/>
	<path fill="none" stroke="#FFFFFF" stroke-width="1.44" stroke-miterlimit="10" d="M169.3,262c0,0-15.1-34.6-7.6-44.7
		c-1.3,1.9,1.9-9.4,0-15.1"/>
	<path fill="none" stroke="#FFFFFF" stroke-width="1.44" stroke-miterlimit="10" d="M241.1,117.3c0,0-6.9-15.7-10.7-15.7
		c4.4,0-23.9-48.4-39-49.7"/>
	<path fill="none" stroke="#FFFFFF" stroke-width="1.44" stroke-miterlimit="10" d="M293.3,325.6c0,0-1.3-12.6-10.7-15.7"/>
	<path fill="none" stroke="#FFFFFF" stroke-width="1.44" stroke-miterlimit="10" d="M170.6,345.1c0,0,17.6-27.7,17.6-34.6"/>
	<path fill="none" stroke="#FFFFFF" stroke-width="1.44" stroke-miterlimit="10" d="M173.1,228.7c0,0,22.7,52.9,60.4,44.7"/>
	<path fill="none" stroke="#FFFFFF" stroke-width="1.44" stroke-miterlimit="10" d="M122.1,100.9c0,0-7.6,38.4,6.9,44.7
		c0,1.3-0.6,33.3,8.2,42.2"/>
	<path fill="none" stroke="#FFFFFF" stroke-width="1.44" stroke-miterlimit="10" d="M295.8,202.2c0,0,12.6,35.2-8.8,52.2"/>
	<path fill="none" stroke="#FFFFFF" stroke-width="1.44" stroke-miterlimit="10" d="M116.5,242.5l-5-3.8v-5.7l-2.5-5
		c0,0,4.4-16.4,1.3-28.3"/>
	<circle cx="270.6" cy="185.9" r="5.7"/>
	<circle cx="217.1" cy="197.2" r="5.7"/>
	<path d="M256.8,233.1c0,0-14.5-1.3-14.5-8.2c0-0.6-6.3-12,12.6-13.8c1.3,0,11.3-2.5,11.3,9.4C266.2,222.4,266.8,231.2,256.8,233.1z
		"/>
	<path fill="none" stroke="#000000" stroke-width="2.16" stroke-miterlimit="10" d="M243.6,240.6c0,0,17,1.9,24.5-5"/>
</g>
</svg>
