<?xml version="1.0" encoding="utf-8"?>
<!-- Generator: Adobe Illustrator 18.0.0, SVG Export Plug-In . SVG Version: 6.00 Build 0)  -->
<!DOCTYPE svg PUBLIC "-//W3C//DTD SVG 1.1//EN" "http://www.w3.org/Graphics/SVG/1.1/DTD/svg11.dtd">
<svg version="1.1" id="Layer_1" xmlns="http://www.w3.org/2000/svg" xmlns:xlink="http://www.w3.org/1999/xlink" x="0px" y="0px"
	 viewBox="0 0 400 400" enable-background="new 0 0 400 400" xml:space="preserve">
<g>
	<path fill="#4E5161" d="M54.2,400l92.2-96.1c37.2-61.7,90-98.3,90-98.3l-29.4,8.9l26.1-12.8l-45.6,5L233,195l26.1-6.7l-19.4-5.6
		c-24.4-4.4-67.2-32.8-67.2-32.8c-21.1-10.6-31.1-63.3-31.1-63.3c-1.7,26.1,41.1,66.7,41.1,66.7c9.4,12.8,63.9,21.1,63.9,21.1
		c18.3,8.3,24.4,3.3,24.4,3.3l-20.6-7.2l23.3,2.8l26.7,3.3l19.4,3.9c88.9,27.8,70.6,58.9,70.6,58.9c6.1,10.6,3.3,21.1,3.3,21.1
		c20.6,51.1-15,77.2-15,77.2c6.1-3.9,0-19.4,0-19.4l-8.3,6.7c1.7,9.4-27.8,63.3-27.8,63.3V400L54.2,400z"/>
	<path fill="#FFF078" d="M355.8,325c-11.7-5.6-6.7-52.8-6.7-52.8l15-5l-6.7-17.2l14.4-11.7l16.1-0.6l3.3-5.6
		c3.3-38.9-77.2-47.8-71.7-47.8c-71.1-3.9-83.9,29.4-83.9,29.4l37.8-10.6l-17.8,3.9l21.1,6.7l-50.6,8.9c0,0,2.8,10,8.3,8.3
		c-12.2,0-46.7,33.3-42.2,33.3c-7.2,21.1,1.1,47.2,6.1,47.2c-10.6,7.8-21.7,40-21.7,36.1c7.8,36.7,67.2,52.2,67.2,52.2H328l9.4-5.6
		l6.1,5.6l2.2-15.6l26.7-57.8L355.8,325z"/>
	<ellipse stroke="#999999" stroke-miterlimit="10" cx="294.7" cy="247.8" rx="16.1" ry="15.6"/>
	<ellipse fill="#FF5D1F" cx="243" cy="285" rx="35.6" ry="37.2"/>
	<path fill="#999999" d="M384.7,311.7c-0.6,13.3-28.3,13.9-28.3,13.9c-5-5.6-7.8-27.8-7.8-27.8C358.6,291.1,385.3,298.3,384.7,311.7
		z"/>
	<path fill="#756F76" d="M374.2,305c-12.2,7.2-25.6-6.7-25.6-6.7V280c2.8-8.9,22.8-6.7,22.8-6.7c11.1,1.1,19.4-15.6,22.8-11.7
		c17.2,48.3-12.8,73.3-12.8,73.3C384.7,321.7,370.3,306.1,374.2,305z"/>
	<path fill="#C7A49F" d="M393.6,258.9c-7.8,12.8-22.8,13.9-22.8,13.9l-11.1-21.1c0-21.1,25-15.6,25-15.6l10-7.8v23.3"/>
	<ellipse cx="372.5" cy="252.8" rx="4.4" ry="3.9"/>
</g>
</svg>
