<?xml version="1.0" encoding="utf-8"?>
<!-- Generator: Adobe Illustrator 18.0.0, SVG Export Plug-In . SVG Version: 6.00 Build 0)  -->
<!DOCTYPE svg PUBLIC "-//W3C//DTD SVG 1.1//EN" "http://www.w3.org/Graphics/SVG/1.1/DTD/svg11.dtd">
<svg version="1.1" id="Layer_1" xmlns="http://www.w3.org/2000/svg" xmlns:xlink="http://www.w3.org/1999/xlink" x="0px" y="0px"
	 viewBox="0 0 72 72" enable-background="new 0 0 72 72" xml:space="preserve">
<g>
	<path fill="#4E5161" d="M20.1,72v-2.1c0,0-5.3-9.7-5-11.4l-1.5-1.2c0,0-1.1,2.8,0,3.5c0,0-6.4-4.7-2.7-13.9c0,0-0.5-1.9,0.6-3.8
		c0,0-3.3-5.6,12.7-10.6l3.5-0.7l4.8-0.6l4.2-0.5L33,32c0,0,1.1,0.9,4.4-0.6c0,0,9.8-1.5,11.5-3.8c0,0,7.7-7.3,7.4-12
		c0,0-1.8,9.5-5.6,11.4c0,0-7.7,5.1-12.1,5.9l-3.5,1l4.7,1.2l8.2,2.1l-8.2-0.9l4.7,2.3L39.2,37c0,0,9.5,6.6,16.2,17.7L72,72H20.1z"
		/>
	<path fill="#FFF078" d="M14.7,58.8l4.8,10.4l0.4,2.8l1.1-1l1.7,1h15.1c0,0,10.7-2.8,12.1-9.4c0,0.7-2-5.1-3.9-6.5
		c0.9,0,2.4-4.7,1.1-8.5c0.8,0-5.4-6-7.6-6c1,0.3,1.5-1.5,1.5-1.5l-9.1-1.6l3.8-1.2l-3.2-0.7l6.8,1.9c0,0-2.3-6-15.1-5.3
		c1,0-13.5,1.6-12.9,8.6l0.6,1l2.9,0.1l2.6,2.1l-1.2,3.1l2.7,0.9c0,0,0.9,8.5-1.2,9.5L14.7,58.8z"/>
	<ellipse stroke="#999999" stroke-miterlimit="10" cx="28.7" cy="44.6" rx="2.9" ry="2.8"/>
	<ellipse fill="#FF5D1F" cx="38" cy="51.3" rx="6.4" ry="6.7"/>
	<path fill="#999999" d="M19,53.6c0,0-0.5,4-1.4,5c0,0-5-0.1-5.1-2.5S17.2,52.4,19,53.6z"/>
	<path fill="#756F76" d="M13.1,60.3c0,0-5.4-4.5-2.3-13.2c0.6-0.7,2.1,2.3,4.1,2.1c0,0,3.6-0.4,4.1,1.2v3.3c0,0-2.4,2.5-4.6,1.2
		C15.1,55.1,12.5,57.9,13.1,60.3z"/>
	<path fill="#C7A49F" d="M10.7,45.3v-4.2l1.8,1.4c0,0,4.5-1,4.5,2.8L15,49.1c0,0-2.7-0.2-4.1-2.5"/>
	<ellipse cx="14.7" cy="45.5" rx="0.8" ry="0.7"/>
</g>
</svg>
