<?xml version="1.0" encoding="utf-8"?>
<!-- Generator: Adobe Illustrator 18.0.0, SVG Export Plug-In . SVG Version: 6.00 Build 0)  -->
<!DOCTYPE svg PUBLIC "-//W3C//DTD SVG 1.1//EN" "http://www.w3.org/Graphics/SVG/1.1/DTD/svg11.dtd">
<svg version="1.1" xmlns="http://www.w3.org/2000/svg" xmlns:xlink="http://www.w3.org/1999/xlink" x="0px" y="0px"
	 viewBox="0 0 72 72" enable-background="new 0 0 72 72" xml:space="preserve">
<g id="Layer_1">
	<g>
		<path fill="#C3922E" d="M56.1,13.8c0,0-0.2-3.5-4.1-3.9c0,0-3.3,0.5-3.5,2.6l-0.5-2.2c0,0-7.7-1.3-12.1-0.9
			c-4.4-0.4-12.1,0.9-12.1,0.9l-0.5,2.2c-0.2-2-3.5-2.6-3.5-2.6c-3.9,0.5-4.1,3.9-4.1,3.9c-1.1,5.5,5.7,10.8,5.7,10.8l6.6,5.8
			c3,3.3,0.5,4.3,0.5,4.3c-0.8,0.5-1.5-0.5-1.5-0.5l-0.3,0.6c1.2,1.6,3.4-0.1,3.4-0.1c0.7-1.1-0.4-3.2-0.4-3.2l3.9,4
			c1.8,2.6,0,3.8,0,3.8l0.5,1.4c0.5,3.9-1.1,7.1-1.1,7.1c-0.6,0-0.9,0.7-0.9,0.7l-3.1,1.2L28,50.2l-0.5,1.3v7.2H27l-1,2.8v1.2h10h10
			v-1.2l-1-2.8h-0.5v-7.2L44,50.2l-1.2-0.5l-3.1-1.2c0,0-0.3-0.7-0.9-0.7c0,0-1.6-3.2-1.1-7.1l0.5-1.4c0,0-1.8-1.2,0-3.8l3.9-4
			c0,0-1.1,2.1-0.4,3.2c0,0,2.2,1.6,3.4,0.1l-0.3-0.6c0,0-0.6,1-1.5,0.5c0,0-2.5-1,0.5-4.3l6.6-5.8C50.5,24.6,57.2,19.3,56.1,13.8z
			 M21.8,23.1c-9.4-9.7-1.5-11.8-1.5-11.8c3.9,1.5,1.8,5.4,1.8,5.4l0.5,0.3l1.2-2.3c1.7,10.6,4.8,15.1,4.8,15.1L21.8,23.1z
			 M50.6,23.1l-6.8,6.7c0,0,3.1-4.5,4.8-15.1l1.2,2.3l0.5-0.3c0,0-2.1-3.9,1.8-5.4C52,11.3,60,13.4,50.6,23.1z"/>
		<path fill="none" stroke="#FFFFFF" stroke-width="0.432" stroke-miterlimit="10" d="M31,30c-3.2-4.1-4-9.6-4.8-14.7"/>
		<path fill="none" stroke="#FFFFFF" stroke-width="0.432" stroke-miterlimit="10" d="M41.7,30c3.2-4.1,4-9.6,4.8-14.7"/>
		<path fill="none" stroke="#FFFFFF" stroke-width="0.144" stroke-miterlimit="10" d="M25.3,12c0,0,10.7,4,21.8,0"/>
		<path fill="none" stroke="#FFFFFF" stroke-width="0.288" stroke-miterlimit="10" d="M20.7,22.6c0,0-9-9.4-0.7-12"/>
		<path fill="none" stroke="#FFFFFF" stroke-width="0.288" stroke-miterlimit="10" d="M51.9,22.6c0,0,9-9.4,0.7-12"/>
		<rect x="29.1" y="52" fill="#FFFFFF" width="13.7" height="6.7"/>
		<path fill="none" stroke="#FFFFFF" stroke-width="0.288" stroke-miterlimit="10" d="M34.1,48c0,0,1.8-4,1-6.6"/>
		<path fill="none" stroke="#FFFFFF" stroke-width="0.288" stroke-miterlimit="10" d="M37.8,48c0,0-1.7-4.7-1.1-6.5"/>
	</g>
</g>
<g id="Layer_2">
</g>
</svg>
